<?xml version="1.0" encoding="UTF-8" standalone="no"?>
<!-- Created with Inkscape (http://www.inkscape.org/) -->

<svg
   width="30.691633mm"
   height="30.691635mm"
   viewBox="0 0 30.691633 30.691635"
   version="1.1"
   id="svg1"
   sodipodi:docname="QR_code.svg"
   inkscape:version="1.3.2 (091e20e, 2023-11-25)"
   xmlns:inkscape="http://www.inkscape.org/namespaces/inkscape"
   xmlns:sodipodi="http://sodipodi.sourceforge.net/DTD/sodipodi-0.dtd"
   xmlns="http://www.w3.org/2000/svg"
   xmlns:svg="http://www.w3.org/2000/svg">
  <sodipodi:namedview
     id="namedview1"
     pagecolor="#ffffff"
     bordercolor="#000000"
     borderopacity="0.25"
     inkscape:showpageshadow="2"
     inkscape:pageopacity="0.0"
     inkscape:pagecheckerboard="0"
     inkscape:deskcolor="#d1d1d1"
     inkscape:document-units="mm"
     inkscape:zoom="7.982105"
     inkscape:cx="72.098776"
     inkscape:cy="117.01174"
     inkscape:window-width="3008"
     inkscape:window-height="1639"
     inkscape:window-x="0"
     inkscape:window-y="25"
     inkscape:window-maximized="0"
     inkscape:current-layer="g2" />
  <defs
     id="defs1" />
  <g
     inkscape:label="Layer 1"
     inkscape:groupmode="layer"
     id="layer1"
     transform="translate(-109.31632,-152.73333)">
    <g
       inkscape:label="QR Code: https://alexandredabyseesaram.github.io/"
       transform="matrix(0.264583,0,0,0.264583,105.083,148.5)"
       id="g2">
      <g
         style="fill:#01426a;fill-opacity:1;stroke:none"
         id="g1">
        <path
           d="m 16,16 h 4 v 4 h -4 z m 4,0 h 4 v 4 h -4 z m 4,0 h 4 v 4 h -4 z m 4,0 h 4 v 4 h -4 z m 4,0 h 4 v 4 h -4 z m 4,0 h 4 v 4 h -4 z m 4,0 h 4 v 4 h -4 z m 8,0 h 4 v 4 h -4 z m 8,0 h 4 v 4 h -4 z m 8,0 h 4 v 4 h -4 z m 4,0 h 4 v 4 h -4 z m 20,0 h 4 v 4 h -4 z m 4,0 h 4 v 4 h -4 z m 4,0 h 4 v 4 h -4 z m 8,0 h 4 v 4 h -4 z m 4,0 h 4 v 4 h -4 z m 4,0 h 4 v 4 h -4 z m 4,0 h 4 v 4 h -4 z m 4,0 h 4 v 4 h -4 z m 4,0 h 4 v 4 h -4 z m 4,0 h 4 v 4 h -4 z M 16,20 h 4 v 4 h -4 z m 24,0 h 4 v 4 h -4 z m 12,0 h 4 v 4 h -4 z m 4,0 h 4 v 4 h -4 z m 4,0 h 4 v 4 h -4 z m 4,0 h 4 v 4 h -4 z m 4,0 h 4 v 4 h -4 z m 16,0 h 4 v 4 h -4 z m 4,0 h 4 v 4 h -4 z m 16,0 h 4 v 4 h -4 z m 24,0 h 4 v 4 h -4 z M 16,24 h 4 v 4 h -4 z m 8,0 h 4 v 4 h -4 z m 4,0 h 4 v 4 h -4 z m 4,0 h 4 v 4 h -4 z m 8,0 h 4 v 4 h -4 z m 8,0 h 4 v 4 h -4 z m 4,0 h 4 v 4 h -4 z m 4,0 h 4 v 4 h -4 z m 12,0 h 4 v 4 h -4 z m 8,0 h 4 v 4 h -4 z m 4,0 h 4 v 4 h -4 z m 8,0 h 4 v 4 h -4 z m 16,0 h 4 v 4 h -4 z m 8,0 h 4 v 4 h -4 z m 4,0 h 4 v 4 h -4 z m 4,0 h 4 v 4 h -4 z m 8,0 h 4 v 4 h -4 z M 16,28 h 4 v 4 h -4 z m 8,0 h 4 v 4 h -4 z m 4,0 h 4 v 4 h -4 z m 4,0 h 4 v 4 h -4 z m 8,0 h 4 v 4 h -4 z m 8,0 h 4 v 4 h -4 z m 4,0 h 4 v 4 h -4 z m 4,0 h 4 v 4 h -4 z m 8,0 h 4 v 4 h -4 z m 4,0 h 4 v 4 h -4 z m 4,0 h 4 v 4 h -4 z m 4,0 h 4 v 4 h -4 z m 8,0 h 4 v 4 h -4 z m 12,0 h 4 v 4 h -4 z m 8,0 h 4 v 4 h -4 z m 8,0 h 4 v 4 h -4 z m 4,0 h 4 v 4 h -4 z m 4,0 h 4 v 4 h -4 z m 8,0 h 4 v 4 h -4 z M 16,32 h 4 v 4 h -4 z m 8,0 h 4 v 4 h -4 z m 4,0 h 4 v 4 h -4 z m 4,0 h 4 v 4 h -4 z m 8,0 h 4 v 4 h -4 z m 8,0 h 4 v 4 h -4 z m 12,0 h 4 v 4 h -4 z m 4,0 h 4 v 4 h -4 z m 4,0 h 4 v 4 h -4 z m 4,0 h 4 v 4 h -4 z m 4,0 h 4 v 4 h -4 z m 4,0 h 4 v 4 h -4 z m 4,0 h 4 v 4 h -4 z m 8,0 h 4 v 4 h -4 z m 12,0 h 4 v 4 h -4 z m 8,0 h 4 v 4 h -4 z m 4,0 h 4 v 4 h -4 z m 4,0 h 4 v 4 h -4 z m 8,0 h 4 v 4 h -4 z M 16,36 h 4 v 4 h -4 z m 24,0 h 4 v 4 h -4 z m 16,0 h 4 v 4 h -4 z m 4,0 h 4 v 4 h -4 z m 8,0 h 4 v 4 h -4 z m 20,0 h 4 v 4 h -4 z m 4,0 h 4 v 4 h -4 z m 4,0 h 4 v 4 h -4 z m 8,0 h 4 v 4 h -4 z m 24,0 h 4 v 4 h -4 z M 16,40 h 4 v 4 h -4 z m 4,0 h 4 v 4 h -4 z m 4,0 h 4 v 4 h -4 z m 4,0 h 4 v 4 h -4 z m 4,0 h 4 v 4 h -4 z m 4,0 h 4 v 4 h -4 z m 4,0 h 4 v 4 h -4 z m 8,0 h 4 v 4 h -4 z m 8,0 h 4 v 4 h -4 z m 8,0 h 4 v 4 h -4 z m 8,0 h 4 v 4 h -4 z m 8,0 h 4 v 4 h -4 z m 8,0 h 4 v 4 h -4 z m 8,0 h 4 v 4 h -4 z m 8,0 h 4 v 4 h -4 z m 4,0 h 4 v 4 h -4 z m 4,0 h 4 v 4 h -4 z m 4,0 h 4 v 4 h -4 z m 4,0 h 4 v 4 h -4 z m 4,0 h 4 v 4 h -4 z m 4,0 h 4 v 4 h -4 z m -72,4 h 4 v 4 h -4 z m 8,0 h 4 v 4 h -4 z m 16,0 h 4 v 4 h -4 z m 4,0 h 4 v 4 h -4 z m 4,0 h 4 v 4 h -4 z m 8,0 h 4 v 4 h -4 z m -80,4 h 4 v 4 h -4 z m 4,0 h 4 v 4 h -4 z m 4,0 h 4 v 4 h -4 z m 4,0 h 4 v 4 h -4 z m 12,0 h 4 v 4 h -4 z m 8,0 h 4 v 4 h -4 z m 8,0 h 4 v 4 h -4 z m 4,0 h 4 v 4 h -4 z m 4,0 h 4 v 4 h -4 z m 8,0 h 4 v 4 h -4 z m 12,0 h 4 v 4 h -4 z m 4,0 h 4 v 4 h -4 z m 8,0 h 4 v 4 h -4 z m 4,0 h 4 v 4 h -4 z m 12,0 h 4 v 4 h -4 z m 4,0 h 4 v 4 h -4 z m 4,0 h 4 v 4 h -4 z m 8,0 h 4 v 4 h -4 z M 20,52 h 4 v 4 h -4 z m 8,0 h 4 v 4 h -4 z m 20,0 h 4 v 4 h -4 z m 8,0 h 4 v 4 h -4 z m 8,0 h 4 v 4 h -4 z m 4,0 h 4 v 4 h -4 z m 12,0 h 4 v 4 h -4 z m 12,0 h 4 v 4 h -4 z m 4,0 h 4 v 4 h -4 z m 4,0 h 4 v 4 h -4 z m 4,0 h 4 v 4 h -4 z m 4,0 h 4 v 4 h -4 z m 4,0 h 4 v 4 h -4 z m 16,0 h 4 v 4 h -4 z M 16,56 h 4 v 4 h -4 z m 8,0 h 4 v 4 h -4 z m 8,0 h 4 v 4 h -4 z m 8,0 h 4 v 4 h -4 z m 4,0 h 4 v 4 h -4 z m 8,0 h 4 v 4 h -4 z m 4,0 h 4 v 4 h -4 z m 4,0 h 4 v 4 h -4 z m 4,0 h 4 v 4 h -4 z m 4,0 h 4 v 4 h -4 z m 28,0 h 4 v 4 h -4 z m 12,0 h 4 v 4 h -4 z m 12,0 h 4 v 4 h -4 z m 4,0 h 4 v 4 h -4 z M 16,60 h 4 v 4 h -4 z m 4,0 h 4 v 4 h -4 z m 12,0 h 4 v 4 h -4 z m 4,0 h 4 v 4 h -4 z m 12,0 h 4 v 4 h -4 z m 4,0 h 4 v 4 h -4 z m 4,0 h 4 v 4 h -4 z m 12,0 h 4 v 4 h -4 z m 4,0 h 4 v 4 h -4 z m 8,0 h 4 v 4 h -4 z m 8,0 h 4 v 4 h -4 z m 12,0 h 4 v 4 h -4 z m 4,0 h 4 v 4 h -4 z m 8,0 h 4 v 4 h -4 z m 16,0 h 4 v 4 h -4 z M 24,64 h 4 v 4 h -4 z m 8,0 h 4 v 4 h -4 z m 4,0 h 4 v 4 h -4 z m 4,0 h 4 v 4 h -4 z m 8,0 h 4 v 4 h -4 z m 4,0 h 4 v 4 h -4 z m 4,0 h 4 v 4 h -4 z m 8,0 h 4 v 4 h -4 z m 4,0 h 4 v 4 h -4 z m 16,0 h 4 v 4 h -4 z m 24,0 h 4 v 4 h -4 z m 8,0 h 4 v 4 h -4 z m 4,0 h 4 v 4 h -4 z M 20,68 h 4 v 4 h -4 z m 8,0 h 4 v 4 h -4 z m 4,0 h 4 v 4 h -4 z m 16,0 h 4 v 4 h -4 z m 4,0 h 4 v 4 h -4 z m 8,0 h 4 v 4 h -4 z m 4,0 h 4 v 4 h -4 z m 4,0 h 4 v 4 h -4 z m 4,0 h 4 v 4 h -4 z m 4,0 h 4 v 4 h -4 z m 4,0 h 4 v 4 h -4 z m 4,0 h 4 v 4 h -4 z m 8,0 h 4 v 4 h -4 z m 12,0 h 4 v 4 h -4 z m 16,0 h 4 v 4 h -4 z m 4,0 h 4 v 4 h -4 z m 4,0 h 4 v 4 h -4 z M 20,72 h 4 v 4 h -4 z m 8,0 h 4 v 4 h -4 z m 4,0 h 4 v 4 h -4 z m 8,0 h 4 v 4 h -4 z m 16,0 h 4 v 4 h -4 z m 4,0 h 4 v 4 h -4 z m 12,0 h 4 v 4 h -4 z m 8,0 h 4 v 4 h -4 z m 12,0 h 4 v 4 h -4 z m 4,0 h 4 v 4 h -4 z m 4,0 h 4 v 4 h -4 z m 8,0 h 4 v 4 h -4 z m 12,0 h 4 v 4 h -4 z m 4,0 h 4 v 4 h -4 z m 4,0 h 4 v 4 h -4 z M 16,76 h 4 v 4 h -4 z m 20,0 h 4 v 4 h -4 z m 12,0 h 4 v 4 h -4 z m 4,0 h 4 v 4 h -4 z m 8,0 h 4 v 4 h -4 z m 12,0 h 4 v 4 h -4 z m 4,0 h 4 v 4 h -4 z m 4,0 h 4 v 4 h -4 z m 20,0 h 4 v 4 h -4 z m 4,0 h 4 v 4 h -4 z m 4,0 h 4 v 4 h -4 z m 4,0 h 4 v 4 h -4 z m 12,0 h 4 v 4 h -4 z M 16,80 h 4 v 4 h -4 z m 4,0 h 4 v 4 h -4 z m 4,0 h 4 v 4 h -4 z m 16,0 h 4 v 4 h -4 z m 8,0 h 4 v 4 h -4 z m 16,0 h 4 v 4 h -4 z m 8,0 h 4 v 4 h -4 z m 8,0 h 4 v 4 h -4 z m 8,0 h 4 v 4 h -4 z m 8,0 h 4 v 4 h -4 z m 4,0 h 4 v 4 h -4 z m 8,0 h 4 v 4 h -4 z m 4,0 h 4 v 4 h -4 z m 4,0 h 4 v 4 h -4 z m 8,0 h 4 v 4 h -4 z M 20,84 h 4 v 4 h -4 z m 4,0 h 4 v 4 h -4 z m 4,0 h 4 v 4 h -4 z m 8,0 h 4 v 4 h -4 z m 8,0 h 4 v 4 h -4 z m 4,0 h 4 v 4 h -4 z m 28,0 h 4 v 4 h -4 z m 12,0 h 4 v 4 h -4 z m 8,0 h 4 v 4 h -4 z m 12,0 h 4 v 4 h -4 z m 8,0 h 4 v 4 h -4 z m 4,0 h 4 v 4 h -4 z m 4,0 h 4 v 4 h -4 z M 16,88 h 4 v 4 h -4 z m 8,0 h 4 v 4 h -4 z m 4,0 h 4 v 4 h -4 z m 12,0 h 4 v 4 h -4 z m 8,0 h 4 v 4 h -4 z m 8,0 h 4 v 4 h -4 z m 12,0 h 4 v 4 h -4 z m 4,0 h 4 v 4 h -4 z m 4,0 h 4 v 4 h -4 z m 4,0 h 4 v 4 h -4 z m 4,0 h 4 v 4 h -4 z m 4,0 h 4 v 4 h -4 z m 24,0 h 4 v 4 h -4 z m 8,0 h 4 v 4 h -4 z m -96,4 h 4 v 4 h -4 z m 12,0 h 4 v 4 h -4 z m 12,0 h 4 v 4 h -4 z m 8,0 h 4 v 4 h -4 z m 4,0 h 4 v 4 h -4 z m 8,0 h 4 v 4 h -4 z m 4,0 h 4 v 4 h -4 z m 12,0 h 4 v 4 h -4 z m 28,0 h 4 v 4 h -4 z m 8,0 h 4 v 4 h -4 z M 20,96 h 4 v 4 h -4 z m 12,0 h 4 v 4 h -4 z m 8,0 h 4 v 4 h -4 z m 4,0 h 4 v 4 h -4 z m 8,0 h 4 v 4 h -4 z m 4,0 h 4 v 4 h -4 z m 12,0 h 4 v 4 h -4 z m 4,0 h 4 v 4 h -4 z m 4,0 h 4 v 4 h -4 z m 4,0 h 4 v 4 h -4 z m 4,0 h 4 v 4 h -4 z m 4,0 h 4 v 4 h -4 z m 4,0 h 4 v 4 h -4 z m 4,0 h 4 v 4 h -4 z m 4,0 h 4 v 4 h -4 z m 4,0 h 4 v 4 h -4 z m 4,0 h 4 v 4 h -4 z m 4,0 h 4 v 4 h -4 z m 4,0 h 4 v 4 h -4 z m 4,0 h 4 v 4 h -4 z m -72,4 h 4 v 4 h -4 z m 4,0 h 4 v 4 h -4 z m 28,0 h 4 v 4 h -4 z m 8,0 h 4 v 4 h -4 z m 8,0 h 4 v 4 h -4 z m 16,0 h 4 v 4 h -4 z m 4,0 h 4 v 4 h -4 z m 4,0 h 4 v 4 h -4 z m 4,0 h 4 v 4 h -4 z m 4,0 h 4 v 4 h -4 z m -112,4 h 4 v 4 h -4 z m 4,0 h 4 v 4 h -4 z m 4,0 h 4 v 4 h -4 z m 4,0 h 4 v 4 h -4 z m 4,0 h 4 v 4 h -4 z m 4,0 h 4 v 4 h -4 z m 4,0 h 4 v 4 h -4 z m 16,0 h 4 v 4 h -4 z m 16,0 h 4 v 4 h -4 z m 8,0 h 4 v 4 h -4 z m 4,0 h 4 v 4 h -4 z m 8,0 h 4 v 4 h -4 z m 4,0 h 4 v 4 h -4 z m 8,0 h 4 v 4 h -4 z m 8,0 h 4 v 4 h -4 z m 4,0 h 4 v 4 h -4 z m 8,0 h 4 v 4 h -4 z m -108,4 h 4 v 4 h -4 z m 24,0 h 4 v 4 h -4 z m 16,0 h 4 v 4 h -4 z m 4,0 h 4 v 4 h -4 z m 4,0 h 4 v 4 h -4 z m 4,0 h 4 v 4 h -4 z m 4,0 h 4 v 4 h -4 z m 4,0 h 4 v 4 h -4 z m 12,0 h 4 v 4 h -4 z m 8,0 h 4 v 4 h -4 z m 16,0 h 4 v 4 h -4 z m 4,0 h 4 v 4 h -4 z m 12,0 h 4 v 4 h -4 z m -112,4 h 4 v 4 h -4 z m 8,0 h 4 v 4 h -4 z m 4,0 h 4 v 4 h -4 z m 4,0 h 4 v 4 h -4 z m 8,0 h 4 v 4 h -4 z m 20,0 h 4 v 4 h -4 z m 16,0 h 4 v 4 h -4 z m 8,0 h 4 v 4 h -4 z m 12,0 h 4 v 4 h -4 z m 4,0 h 4 v 4 h -4 z m 4,0 h 4 v 4 h -4 z m 4,0 h 4 v 4 h -4 z m 4,0 h 4 v 4 h -4 z m 8,0 h 4 v 4 h -4 z m 4,0 h 4 v 4 h -4 z m 4,0 h 4 v 4 h -4 z m -112,4 h 4 v 4 h -4 z m 8,0 h 4 v 4 h -4 z m 4,0 h 4 v 4 h -4 z m 4,0 h 4 v 4 h -4 z m 8,0 h 4 v 4 h -4 z m 8,0 h 4 v 4 h -4 z m 4,0 h 4 v 4 h -4 z m 8,0 h 4 v 4 h -4 z m 8,0 h 4 v 4 h -4 z m 8,0 h 4 v 4 h -4 z m 4,0 h 4 v 4 h -4 z m 12,0 h 4 v 4 h -4 z m 4,0 h 4 v 4 h -4 z m 4,0 h 4 v 4 h -4 z m 8,0 h 4 v 4 h -4 z m 4,0 h 4 v 4 h -4 z m 4,0 h 4 v 4 h -4 z m 12,0 h 4 v 4 h -4 z m -112,4 h 4 v 4 h -4 z m 8,0 h 4 v 4 h -4 z m 4,0 h 4 v 4 h -4 z m 4,0 h 4 v 4 h -4 z m 8,0 h 4 v 4 h -4 z m 8,0 h 4 v 4 h -4 z m 4,0 h 4 v 4 h -4 z m 4,0 h 4 v 4 h -4 z m 8,0 h 4 v 4 h -4 z m 8,0 h 4 v 4 h -4 z m 8,0 h 4 v 4 h -4 z m 8,0 h 4 v 4 h -4 z m 12,0 h 4 v 4 h -4 z m 8,0 h 4 v 4 h -4 z m 12,0 h 4 v 4 h -4 z m 8,0 h 4 v 4 h -4 z m -112,4 h 4 v 4 h -4 z m 24,0 h 4 v 4 h -4 z m 8,0 h 4 v 4 h -4 z m 16,0 h 4 v 4 h -4 z m 4,0 h 4 v 4 h -4 z m 12,0 h 4 v 4 h -4 z m 16,0 h 4 v 4 h -4 z m 4,0 h 4 v 4 h -4 z m 8,0 h 4 v 4 h -4 z m 4,0 h 4 v 4 h -4 z m 4,0 h 4 v 4 h -4 z m 8,0 h 4 v 4 h -4 z m -108,4 h 4 v 4 h -4 z m 4,0 h 4 v 4 h -4 z m 4,0 h 4 v 4 h -4 z m 4,0 h 4 v 4 h -4 z m 4,0 h 4 v 4 h -4 z m 4,0 h 4 v 4 h -4 z m 4,0 h 4 v 4 h -4 z m 8,0 h 4 v 4 h -4 z m 12,0 h 4 v 4 h -4 z m 16,0 h 4 v 4 h -4 z m 16,0 h 4 v 4 h -4 z m 4,0 h 4 v 4 h -4 z m 8,0 h 4 v 4 h -4 z m 4,0 h 4 v 4 h -4 z m 16,0 h 4 v 4 h -4 z"
           id="path1"
           style="fill:#01426a;fill-opacity:1" />
      </g>
    </g>
  </g>
</svg>
