<?xml version="1.0" encoding="utf-8" standalone="no"?>
<!DOCTYPE svg PUBLIC "-//W3C//DTD SVG 1.1//EN"
  "http://www.w3.org/Graphics/SVG/1.1/DTD/svg11.dtd">
<svg xmlns:xlink="http://www.w3.org/1999/xlink" width="336.431009pt" height="217.536853pt" viewBox="0 0 336.431009 217.536853" xmlns="http://www.w3.org/2000/svg" version="1.1">
 <metadata>
  <rdf:RDF xmlns:dc="http://purl.org/dc/elements/1.1/" xmlns:cc="http://creativecommons.org/ns#" xmlns:rdf="http://www.w3.org/1999/02/22-rdf-syntax-ns#">
   <cc:Work>
    <dc:type rdf:resource="http://purl.org/dc/dcmitype/StillImage"/>
    <dc:date>2024-10-21T14:29:01.218801</dc:date>
    <dc:format>image/svg+xml</dc:format>
    <dc:creator>
     <cc:Agent>
      <dc:title>Matplotlib v3.8.0, https://matplotlib.org/</dc:title>
     </cc:Agent>
    </dc:creator>
   </cc:Work>
  </rdf:RDF>
 </metadata>
 <defs>
  <style type="text/css">*{stroke-linejoin: round; stroke-linecap: butt}</style>
 </defs>
 <g id="figure_1">
  <g id="patch_1">
   <path d="M 0 217.536853 
L 336.431009 217.536853 
L 336.431009 0 
L 0 0 
z
" style="fill: #ffffff"/>
  </g>
  <g id="axes_1">
   <g id="patch_2">
    <path d="M 37.936915 173.52 
L 261.136915 173.52 
L 261.136915 7.2 
L 37.936915 7.2 
z
" style="fill: #ffffff"/>
   </g>
   <g id="matplotlib.axis_1">
    <g id="xtick_1">
     <g id="line2d_1">
      <defs>
       <path id="m31bb1aa14d" d="M 0 0 
L 0 3.5 
" style="stroke: #000000; stroke-width: 0.8"/>
      </defs>
      <g>
       <use xlink:href="#m31bb1aa14d" x="48.082369" y="173.52" style="stroke: #000000; stroke-width: 0.8"/>
      </g>
     </g>
     <g id="text_1">
      <!-- $\mathdefault{0}$ -->
      <g transform="translate(44.668125 190.457648) scale(0.14 -0.14)">
       <defs>
        <path id="CMR17-30" d="M 2688 2038 
C 2688 2430 2682 3099 2413 3613 
C 2176 4063 1798 4224 1466 4224 
C 1158 4224 768 4082 525 3620 
C 269 3137 243 2539 243 2038 
C 243 1671 250 1112 448 623 
C 723 -39 1216 -128 1466 -128 
C 1760 -128 2208 -7 2470 604 
C 2662 1048 2688 1568 2688 2038 
z
M 1466 -26 
C 1056 -26 813 328 723 816 
C 653 1196 653 1749 653 2109 
C 653 2604 653 3015 736 3407 
C 858 3954 1216 4121 1466 4121 
C 1728 4121 2067 3947 2189 3420 
C 2272 3054 2278 2623 2278 2109 
C 2278 1691 2278 1176 2202 797 
C 2067 96 1690 -26 1466 -26 
z
" transform="scale(0.015625)"/>
       </defs>
       <use xlink:href="#CMR17-30" transform="scale(0.996264)"/>
      </g>
     </g>
    </g>
    <g id="xtick_2">
     <g id="line2d_2">
      <g>
       <use xlink:href="#m31bb1aa14d" x="127.654562" y="173.52" style="stroke: #000000; stroke-width: 0.8"/>
      </g>
     </g>
     <g id="text_2">
      <!-- $\mathdefault{1000}$ -->
      <g transform="translate(113.997585 190.457648) scale(0.14 -0.14)">
       <defs>
        <path id="CMR17-31" d="M 1702 4083 
C 1702 4217 1696 4224 1606 4224 
C 1357 3927 979 3833 621 3820 
C 602 3820 570 3820 563 3808 
C 557 3795 557 3782 557 3648 
C 755 3648 1088 3686 1344 3839 
L 1344 467 
C 1344 243 1331 166 781 166 
L 589 166 
L 589 0 
C 896 6 1216 12 1523 12 
C 1830 12 2150 6 2458 0 
L 2458 166 
L 2266 166 
C 1715 166 1702 236 1702 467 
L 1702 4083 
z
" transform="scale(0.015625)"/>
       </defs>
       <use xlink:href="#CMR17-31" transform="scale(0.996264)"/>
       <use xlink:href="#CMR17-30" transform="translate(45.690477 0) scale(0.996264)"/>
       <use xlink:href="#CMR17-30" transform="translate(91.380954 0) scale(0.996264)"/>
       <use xlink:href="#CMR17-30" transform="translate(137.071431 0) scale(0.996264)"/>
      </g>
     </g>
    </g>
    <g id="xtick_3">
     <g id="line2d_3">
      <g>
       <use xlink:href="#m31bb1aa14d" x="207.226754" y="173.52" style="stroke: #000000; stroke-width: 0.8"/>
      </g>
     </g>
     <g id="text_3">
      <!-- $\mathdefault{2000}$ -->
      <g transform="translate(193.569777 190.457648) scale(0.14 -0.14)">
       <defs>
        <path id="CMR17-32" d="M 2669 990 
L 2554 990 
C 2490 537 2438 460 2413 422 
C 2381 371 1920 371 1830 371 
L 602 371 
C 832 620 1280 1073 1824 1596 
C 2214 1966 2669 2400 2669 3033 
C 2669 3788 2067 4224 1395 4224 
C 691 4224 262 3603 262 3027 
C 262 2777 448 2745 525 2745 
C 589 2745 781 2783 781 3007 
C 781 3206 614 3264 525 3264 
C 486 3264 448 3257 422 3244 
C 544 3788 915 4057 1306 4057 
C 1862 4057 2227 3616 2227 3033 
C 2227 2477 1901 1998 1536 1583 
L 262 147 
L 262 0 
L 2515 0 
L 2669 990 
z
" transform="scale(0.015625)"/>
       </defs>
       <use xlink:href="#CMR17-32" transform="scale(0.996264)"/>
       <use xlink:href="#CMR17-30" transform="translate(45.690477 0) scale(0.996264)"/>
       <use xlink:href="#CMR17-30" transform="translate(91.380954 0) scale(0.996264)"/>
       <use xlink:href="#CMR17-30" transform="translate(137.071431 0) scale(0.996264)"/>
      </g>
     </g>
    </g>
    <g id="text_4">
     <!-- Epochs -->
     <g transform="translate(126.279328 207.366075) scale(0.14 -0.14)">
      <defs>
       <path id="NimbusSanL-Regu-45" d="M 1171 2112 
L 3712 2112 
L 3712 2636 
L 1171 2636 
L 1171 4147 
L 3808 4147 
L 3808 4672 
L 576 4672 
L 576 0 
L 3923 0 
L 3923 524 
L 1171 524 
L 1171 2112 
z
" transform="scale(0.015625)"/>
       <path id="NimbusSanL-Regu-70" d="M 346 -1408 
L 883 -1408 
L 883 371 
C 1165 25 1478 -128 1914 -128 
C 2778 -128 3347 568 3347 1632 
C 3347 2752 2797 3456 1907 3456 
C 1453 3456 1088 3251 838 2854 
L 838 3359 
L 346 3359 
L 346 -1408 
z
M 1818 2956 
C 2406 2956 2790 2440 2790 1644 
C 2790 887 2400 371 1818 371 
C 1254 371 883 880 883 1663 
C 883 2447 1254 2956 1818 2956 
z
" transform="scale(0.015625)"/>
       <path id="NimbusSanL-Regu-6f" d="M 1741 3456 
C 800 3456 230 2784 230 1663 
C 230 543 794 -128 1747 -128 
C 2688 -128 3264 543 3264 1638 
C 3264 2791 2707 3456 1741 3456 
z
M 1747 2963 
C 2349 2963 2707 2472 2707 1644 
C 2707 861 2336 364 1747 364 
C 1152 364 787 855 787 1663 
C 787 2466 1152 2963 1747 2963 
z
" transform="scale(0.015625)"/>
       <path id="NimbusSanL-Regu-63" d="M 3014 2237 
C 2989 2561 2918 2771 2790 2956 
C 2560 3270 2157 3456 1690 3456 
C 787 3456 198 2740 198 1632 
C 198 555 774 -128 1683 -128 
C 2483 -128 2989 352 3053 1167 
L 2515 1167 
C 2426 632 2150 364 1696 364 
C 1107 364 755 842 755 1632 
C 755 2466 1101 2963 1683 2963 
C 2131 2963 2413 2701 2477 2237 
L 3014 2237 
z
" transform="scale(0.015625)"/>
       <path id="NimbusSanL-Regu-68" d="M 448 4672 
L 448 0 
L 979 0 
L 979 1853 
C 979 2539 1338 2988 1888 2988 
C 2061 2988 2234 2930 2362 2834 
C 2515 2725 2579 2565 2579 2328 
L 2579 0 
L 3110 0 
L 3110 2539 
C 3110 3103 2707 3456 2054 3456 
C 1581 3456 1293 3308 979 2898 
L 979 4672 
L 448 4672 
z
" transform="scale(0.015625)"/>
       <path id="NimbusSanL-Regu-73" d="M 2803 2428 
C 2797 3084 2362 3456 1587 3456 
C 806 3456 301 3052 301 2434 
C 301 1912 570 1663 1363 1472 
L 1862 1351 
C 2234 1262 2381 1129 2381 887 
C 2381 574 2067 364 1600 364 
C 1312 364 1069 447 934 587 
C 851 683 813 778 781 1014 
L 218 1014 
C 243 243 678 -128 1555 -128 
C 2400 -128 2938 288 2938 931 
C 2938 1428 2656 1702 1990 1861 
L 1478 1982 
C 1043 2084 858 2224 858 2459 
C 858 2765 1133 2963 1568 2963 
C 1997 2963 2227 2778 2240 2428 
L 2803 2428 
z
" transform="scale(0.015625)"/>
      </defs>
      <use xlink:href="#NimbusSanL-Regu-45" transform="scale(0.996264)"/>
      <use xlink:href="#NimbusSanL-Regu-70" transform="translate(66.450031 0) scale(0.996264)"/>
      <use xlink:href="#NimbusSanL-Regu-6f" transform="translate(121.841708 0) scale(0.996264)"/>
      <use xlink:href="#NimbusSanL-Regu-63" transform="translate(177.233385 0) scale(0.996264)"/>
      <use xlink:href="#NimbusSanL-Regu-68" transform="translate(227.046586 0) scale(0.996264)"/>
      <use xlink:href="#NimbusSanL-Regu-73" transform="translate(282.438263 0) scale(0.996264)"/>
     </g>
    </g>
   </g>
   <g id="matplotlib.axis_2">
    <g id="ytick_1">
     <g id="line2d_4">
      <defs>
       <path id="mf17d646085" d="M 0 0 
L -3.5 0 
" style="stroke: #01426a; stroke-width: 0.8"/>
      </defs>
      <g>
       <use xlink:href="#mf17d646085" x="37.936915" y="140.76" style="fill: #01426a; stroke: #01426a; stroke-width: 0.8"/>
      </g>
     </g>
     <g id="text_5">
      <!-- $\mathdefault{2}$ -->
      <g style="fill: #01426a" transform="translate(24.108426 145.728824) scale(0.14 -0.14)">
       <use xlink:href="#CMR17-32" transform="scale(0.996264)"/>
      </g>
     </g>
    </g>
    <g id="ytick_2">
     <g id="line2d_5">
      <g>
       <use xlink:href="#mf17d646085" x="37.936915" y="90.36" style="fill: #01426a; stroke: #01426a; stroke-width: 0.8"/>
      </g>
     </g>
     <g id="text_6">
      <!-- $\mathdefault{4}$ -->
      <g style="fill: #01426a" transform="translate(24.108426 95.328824) scale(0.14 -0.14)">
       <defs>
        <path id="CMR17-34" d="M 2150 4147 
C 2150 4281 2144 4288 2029 4288 
L 128 1254 
L 128 1088 
L 1779 1088 
L 1779 460 
C 1779 230 1766 166 1318 166 
L 1197 166 
L 1197 0 
C 1402 12 1747 12 1965 12 
C 2182 12 2528 12 2733 0 
L 2733 166 
L 2611 166 
C 2163 166 2150 230 2150 460 
L 2150 1088 
L 2803 1088 
L 2803 1254 
L 2150 1254 
L 2150 4147 
z
M 1798 3723 
L 1798 1254 
L 256 1254 
L 1798 3723 
z
" transform="scale(0.015625)"/>
       </defs>
       <use xlink:href="#CMR17-34" transform="scale(0.996264)"/>
      </g>
     </g>
    </g>
    <g id="ytick_3">
     <g id="line2d_6">
      <g>
       <use xlink:href="#mf17d646085" x="37.936915" y="39.96" style="fill: #01426a; stroke: #01426a; stroke-width: 0.8"/>
      </g>
     </g>
     <g id="text_7">
      <!-- $\mathdefault{6}$ -->
      <g style="fill: #01426a" transform="translate(24.108426 44.928824) scale(0.14 -0.14)">
       <defs>
        <path id="CMR17-36" d="M 678 2198 
C 678 3712 1395 4076 1811 4076 
C 1946 4076 2272 4049 2400 3782 
C 2298 3782 2106 3782 2106 3558 
C 2106 3385 2246 3328 2336 3328 
C 2394 3328 2566 3353 2566 3571 
C 2566 3987 2246 4224 1805 4224 
C 1043 4224 243 3411 243 2011 
C 243 257 966 -128 1478 -128 
C 2099 -128 2688 431 2688 1295 
C 2688 2101 2170 2688 1517 2688 
C 1126 2688 838 2430 678 1979 
L 678 2198 
z
M 1478 25 
C 691 25 691 1212 691 1450 
C 691 1914 909 2585 1504 2585 
C 1613 2585 1926 2585 2138 2140 
C 2253 1889 2253 1624 2253 1302 
C 2253 954 2253 696 2118 438 
C 1978 173 1773 25 1478 25 
z
" transform="scale(0.015625)"/>
       </defs>
       <use xlink:href="#CMR17-36" transform="scale(0.996264)"/>
      </g>
     </g>
    </g>
    <g id="text_8">
     <!-- Number of modes -->
     <g style="fill: #01426a" transform="translate(17.137648 145.780522) rotate(-90) scale(0.14 -0.14)">
      <defs>
       <path id="NimbusSanL-Regu-4e" d="M 4134 4672 
L 3571 4672 
L 3571 852 
L 1133 4672 
L 486 4672 
L 486 0 
L 1050 0 
L 1050 3787 
L 3462 0 
L 4134 0 
L 4134 4672 
z
" transform="scale(0.015625)"/>
       <path id="NimbusSanL-Regu-75" d="M 3085 19 
L 3085 3328 
L 2554 3328 
L 2554 1454 
C 2554 780 2195 339 1638 339 
C 1216 339 947 591 947 988 
L 947 3328 
L 416 3328 
L 416 780 
C 416 230 832 -128 1485 -128 
C 1978 -128 2291 44 2605 484 
L 2605 19 
L 3085 19 
z
" transform="scale(0.015625)"/>
       <path id="NimbusSanL-Regu-6d" d="M 448 3328 
L 448 0 
L 986 0 
L 986 2089 
C 986 2597 1338 2988 1773 2988 
C 2170 2988 2394 2744 2394 2315 
L 2394 0 
L 2931 0 
L 2931 2109 
C 2931 2597 3283 2988 3718 2988 
C 4109 2988 4339 2738 4339 2315 
L 4339 0 
L 4877 0 
L 4877 2520 
C 4877 3123 4531 3456 3904 3456 
C 3456 3456 3187 3321 2874 2943 
C 2675 3302 2406 3456 1971 3456 
C 1523 3456 1229 3289 941 2886 
L 941 3328 
L 448 3328 
z
" transform="scale(0.015625)"/>
       <path id="NimbusSanL-Regu-62" d="M 346 4672 
L 346 19 
L 826 19 
L 826 447 
C 1082 57 1421 -128 1888 -128 
C 2771 -128 3347 594 3347 1702 
C 3347 2784 2797 3456 1914 3456 
C 1453 3456 1126 3283 877 2905 
L 877 4672 
L 346 4672 
z
M 1811 2956 
C 2406 2956 2790 2440 2790 1644 
C 2790 887 2394 371 1811 371 
C 1248 371 877 880 877 1663 
C 877 2447 1248 2956 1811 2956 
z
" transform="scale(0.015625)"/>
       <path id="NimbusSanL-Regu-65" d="M 3283 1484 
C 3283 1998 3245 2311 3149 2565 
C 2931 3123 2419 3456 1792 3456 
C 858 3456 256 2734 256 1619 
C 256 545 838 -128 1779 -128 
C 2547 -128 3078 307 3213 1018 
L 2675 1018 
C 2528 588 2227 364 1798 364 
C 1459 364 1171 514 992 787 
C 864 974 819 1161 813 1484 
L 3283 1484 
z
M 826 1920 
C 870 2552 1248 2963 1786 2963 
C 2310 2963 2714 2519 2714 1959 
C 2714 1946 2714 1933 2707 1920 
L 826 1920 
z
" transform="scale(0.015625)"/>
       <path id="NimbusSanL-Regu-72" d="M 442 3328 
L 442 0 
L 979 0 
L 979 1727 
C 979 2203 1101 2514 1357 2698 
C 1523 2819 1683 2857 2054 2863 
L 2054 3404 
C 1965 3449 1920 3456 1850 3456 
C 1504 3456 1242 3251 934 2750 
L 934 3328 
L 442 3328 
z
" transform="scale(0.015625)"/>
       <path id="NimbusSanL-Regu-66" d="M 1651 3328 
L 1094 3328 
L 1094 3860 
C 1094 4087 1222 4204 1466 4204 
C 1510 4204 1530 4204 1651 4198 
L 1651 4639 
C 1530 4665 1459 4672 1350 4672 
C 858 4672 563 4390 563 3905 
L 563 3328 
L 115 3328 
L 115 2892 
L 563 2892 
L 563 0 
L 1094 0 
L 1094 2892 
L 1651 2892 
L 1651 3328 
z
" transform="scale(0.015625)"/>
       <path id="NimbusSanL-Regu-64" d="M 3168 4672 
L 2637 4672 
L 2637 2937 
C 2413 3276 2054 3456 1606 3456 
C 736 3456 166 2759 166 1695 
C 166 568 723 -128 1626 -128 
C 2086 -128 2406 44 2694 460 
L 2694 19 
L 3168 19 
L 3168 4672 
z
M 1696 2956 
C 2272 2956 2637 2447 2637 1651 
C 2637 880 2266 371 1702 371 
C 1114 371 723 887 723 1663 
C 723 2440 1114 2956 1696 2956 
z
" transform="scale(0.015625)"/>
      </defs>
      <use xlink:href="#NimbusSanL-Regu-4e" transform="scale(0.996264)"/>
      <use xlink:href="#NimbusSanL-Regu-75" transform="translate(71.929985 0) scale(0.996264)"/>
      <use xlink:href="#NimbusSanL-Regu-6d" transform="translate(127.321662 0) scale(0.996264)"/>
      <use xlink:href="#NimbusSanL-Regu-62" transform="translate(210.310092 0) scale(0.996264)"/>
      <use xlink:href="#NimbusSanL-Regu-65" transform="translate(265.701769 0) scale(0.996264)"/>
      <use xlink:href="#NimbusSanL-Regu-72" transform="translate(321.093446 0) scale(0.996264)"/>
      <use xlink:href="#NimbusSanL-Regu-6f" transform="translate(381.963845 0) scale(0.996264)"/>
      <use xlink:href="#NimbusSanL-Regu-66" transform="translate(437.355522 0) scale(0.996264)"/>
      <use xlink:href="#NimbusSanL-Regu-6d" transform="translate(492.745861 0) scale(0.996264)"/>
      <use xlink:href="#NimbusSanL-Regu-6f" transform="translate(575.734292 0) scale(0.996264)"/>
      <use xlink:href="#NimbusSanL-Regu-64" transform="translate(631.125969 0) scale(0.996264)"/>
      <use xlink:href="#NimbusSanL-Regu-65" transform="translate(686.517646 0) scale(0.996264)"/>
      <use xlink:href="#NimbusSanL-Regu-73" transform="translate(741.909323 0) scale(0.996264)"/>
     </g>
    </g>
   </g>
   <g id="line2d_7">
    <path d="M 48.082369 165.96 
L 100.600017 165.96 
L 100.759161 140.76 
L 141.977557 140.76 
L 142.136701 115.56 
L 187.731567 115.56 
L 187.890712 90.36 
L 207.704188 90.36 
L 207.863332 65.16 
L 230.620979 65.16 
L 230.780123 39.96 
L 250.036594 39.96 
L 250.195738 14.76 
L 250.99146 14.76 
L 250.99146 14.76 
" clip-path="url(#p0cfe471293)" style="fill: none; stroke: #01426a; stroke-linecap: square"/>
   </g>
   <g id="patch_3">
    <path d="M 37.936915 173.52 
L 37.936915 7.2 
" style="fill: none; stroke: #000000; stroke-width: 0.8; stroke-linejoin: miter; stroke-linecap: square"/>
   </g>
   <g id="patch_4">
    <path d="M 261.136915 173.52 
L 261.136915 7.2 
" style="fill: none; stroke: #000000; stroke-width: 0.8; stroke-linejoin: miter; stroke-linecap: square"/>
   </g>
   <g id="patch_5">
    <path d="M 37.936915 173.52 
L 261.136915 173.52 
" style="fill: none; stroke: #000000; stroke-width: 0.8; stroke-linejoin: miter; stroke-linecap: square"/>
   </g>
   <g id="patch_6">
    <path d="M 37.936915 7.2 
L 261.136915 7.2 
" style="fill: none; stroke: #000000; stroke-width: 0.8; stroke-linejoin: miter; stroke-linecap: square"/>
   </g>
  </g>
  <g id="axes_2">
   <g id="matplotlib.axis_3">
    <g id="ytick_4">
     <g id="line2d_8">
      <defs>
       <path id="m1ab86466f3" d="M 0 0 
L 3.5 0 
" style="stroke: #ce0037; stroke-width: 0.8"/>
      </defs>
      <g>
       <use xlink:href="#m1ab86466f3" x="261.136915" y="84.35268" style="fill: #ce0037; stroke: #ce0037; stroke-width: 0.8"/>
      </g>
     </g>
     <g id="text_9">
      <!-- -2e-3 -->
      <g style="fill: #ce0037" transform="translate(268.136915 89.321504) scale(0.14 -0.14)">
       <defs>
        <path id="NimbusSanL-Regu-2d" d="M 1818 1996 
L 294 1996 
L 294 1536 
L 1818 1536 
L 1818 1996 
z
" transform="scale(0.015625)"/>
        <path id="NimbusSanL-Regu-32" d="M 3238 556 
L 851 556 
C 909 928 1114 1165 1670 1493 
L 2310 1839 
C 2944 2185 3270 2653 3270 3211 
C 3270 3589 3117 3942 2848 4185 
C 2579 4428 2246 4544 1818 4544 
C 1242 4544 813 4339 563 3955 
C 403 3711 333 3429 320 2967 
L 883 2967 
C 902 3275 941 3461 1018 3608 
C 1165 3884 1459 4051 1798 4051 
C 2310 4051 2694 3685 2694 3198 
C 2694 2839 2483 2531 2080 2300 
L 1491 1967 
C 544 1428 269 999 218 0 
L 3238 0 
L 3238 556 
z
" transform="scale(0.015625)"/>
        <path id="NimbusSanL-Regu-33" d="M 1414 2093 
L 1485 2093 
L 1722 2099 
C 2342 2099 2662 1819 2662 1276 
C 2662 709 2310 371 1722 371 
C 1107 371 806 677 768 1334 
L 205 1334 
C 230 970 294 734 403 530 
C 634 96 1082 -128 1702 -128 
C 2637 -128 3238 428 3238 1283 
C 3238 1857 3014 2176 2470 2361 
C 2893 2526 3104 2845 3104 3298 
C 3104 4076 2586 4544 1722 4544 
C 806 4544 320 4044 301 3081 
L 864 3081 
C 870 3356 896 3509 966 3649 
C 1094 3898 1376 4051 1728 4051 
C 2227 4051 2528 3757 2528 3279 
C 2528 2960 2413 2769 2163 2667 
C 2010 2603 1811 2577 1414 2571 
L 1414 2093 
z
" transform="scale(0.015625)"/>
       </defs>
       <use xlink:href="#NimbusSanL-Regu-2d" transform="scale(0.996264)"/>
       <use xlink:href="#NimbusSanL-Regu-32" transform="translate(33.17523 0) scale(0.996264)"/>
       <use xlink:href="#NimbusSanL-Regu-65" transform="translate(88.566907 0) scale(0.996264)"/>
       <use xlink:href="#NimbusSanL-Regu-2d" transform="translate(143.958584 0) scale(0.996264)"/>
       <use xlink:href="#NimbusSanL-Regu-33" transform="translate(177.133813 0) scale(0.996264)"/>
      </g>
     </g>
    </g>
    <g id="ytick_5">
     <g id="line2d_9">
      <g>
       <use xlink:href="#m1ab86466f3" x="261.136915" y="83.005015" style="fill: #ce0037; stroke: #ce0037; stroke-width: 0.8"/>
      </g>
     </g>
     <g id="text_10">
      <!-- -2.3e-3 -->
      <g style="fill: #ce0037" transform="translate(268.136915 87.973839) scale(0.14 -0.14)">
       <defs>
        <path id="NimbusSanL-Regu-2e" d="M 1222 665 
L 557 665 
L 557 0 
L 1222 0 
L 1222 665 
z
" transform="scale(0.015625)"/>
       </defs>
       <use xlink:href="#NimbusSanL-Regu-2d" transform="scale(0.996264)"/>
       <use xlink:href="#NimbusSanL-Regu-32" transform="translate(33.17523 0) scale(0.996264)"/>
       <use xlink:href="#NimbusSanL-Regu-2e" transform="translate(88.566907 0) scale(0.996264)"/>
       <use xlink:href="#NimbusSanL-Regu-33" transform="translate(116.262076 0) scale(0.996264)"/>
       <use xlink:href="#NimbusSanL-Regu-65" transform="translate(171.653753 0) scale(0.996264)"/>
       <use xlink:href="#NimbusSanL-Regu-2d" transform="translate(227.04543 0) scale(0.996264)"/>
       <use xlink:href="#NimbusSanL-Regu-33" transform="translate(260.22066 0) scale(0.996264)"/>
      </g>
     </g>
    </g>
    <g id="text_11">
     <!-- Loss -->
     <g style="fill: #ce0037" transform="translate(326.260231 105.088673) rotate(-90) scale(0.14 -0.14)">
      <defs>
       <path id="NimbusSanL-Regu-4c" d="M 1107 4672 
L 512 4672 
L 512 0 
L 3411 0 
L 3411 524 
L 1107 524 
L 1107 4672 
z
" transform="scale(0.015625)"/>
      </defs>
      <use xlink:href="#NimbusSanL-Regu-4c" transform="scale(0.996264)"/>
      <use xlink:href="#NimbusSanL-Regu-6f" transform="translate(55.391677 0) scale(0.996264)"/>
      <use xlink:href="#NimbusSanL-Regu-73" transform="translate(110.783354 0) scale(0.996264)"/>
      <use xlink:href="#NimbusSanL-Regu-73" transform="translate(160.596554 0) scale(0.996264)"/>
     </g>
    </g>
   </g>
   <g id="line2d_10">
    <path d="M 48.082369 56.975504 
L 48.878091 56.523485 
L 50.151246 55.893835 
L 50.62868 55.329089 
L 51.026541 54.509775 
L 51.424402 53.200502 
L 51.822263 51.160571 
L 52.220123 47.956677 
L 52.538412 43.861328 
L 52.777129 38.794469 
L 52.936273 32.833166 
L 53.095418 14.76 
L 53.17499 19.998735 
L 53.413706 36.654419 
L 53.731995 43.507032 
L 54.129856 47.921464 
L 54.686861 51.512548 
L 55.323439 54.097871 
L 56.119161 56.365238 
L 57.312744 59.01439 
L 59.859054 63.988391 
L 62.405364 68.534378 
L 64.951674 72.6122 
L 67.657129 76.518208 
L 76.012209 88.231956 
L 78.081086 91.709311 
L 80.547824 96.279559 
L 83.412423 102.082083 
L 88.823332 113.620431 
L 93.040658 122.288984 
L 97.735418 131.292897 
L 100.520444 136.35128 
L 100.600017 128.96777 
L 100.679589 130.349189 
L 100.838733 126.808222 
L 101.07745 125.964917 
L 101.873172 120.83656 
L 103.146327 112.894792 
L 104.101193 108.374703 
L 104.817343 105.931603 
L 105.45392 104.431003 
L 106.090498 103.473349 
L 106.647503 103.042995 
L 107.124936 102.955282 
L 107.681942 103.124032 
L 108.557236 103.553756 
L 109.114241 103.575714 
L 111.97884 102.369703 
L 113.490712 102.528253 
L 114.366006 102.981796 
L 115.161728 103.611419 
L 116.991888 105.613727 
L 118.424188 107.727897 
L 121.527503 113.279732 
L 122.323225 114.753035 
L 125.346968 119.71129 
L 125.744829 120.180214 
L 125.983546 120.530797 
L 126.14269 120.642191 
L 126.938412 121.703834 
L 127.734134 122.648436 
L 128.370712 123.5345 
L 128.609428 123.984822 
L 128.768573 123.8219 
L 128.927717 123.587299 
L 129.086861 124.103005 
L 129.246006 124.439074 
L 129.40515 124.390066 
L 129.882583 124.971563 
L 132.031033 127.482153 
L 132.269749 127.833598 
L 132.508466 127.40134 
L 132.747182 128.180735 
L 132.826754 128.154526 
L 132.985899 128.168263 
L 134.09991 129.497965 
L 134.338626 129.843432 
L 134.816059 129.852835 
L 135.054776 130.384206 
L 135.21392 130.349387 
L 135.611781 130.861693 
L 135.93007 131.076986 
L 136.805364 131.913232 
L 137.123653 132.317099 
L 137.362369 132.983809 
L 137.521514 133.649476 
L 137.601086 133.567749 
L 137.839803 131.754663 
L 138.158091 132.774758 
L 138.237664 132.853231 
L 138.396808 133.384406 
L 138.47638 133.303736 
L 138.635525 132.987013 
L 138.874241 133.871108 
L 139.033386 133.40762 
L 139.112958 133.503221 
L 139.351674 134.177472 
L 139.510819 133.901296 
L 139.749535 134.333009 
L 139.829107 134.270377 
L 139.988252 134.25501 
L 140.226968 134.763637 
L 140.465685 134.711337 
L 140.863546 134.987107 
L 141.420551 135.464573 
L 141.897984 136.056175 
L 141.977557 128.322408 
L 142.057129 129.140977 
L 142.216273 125.658362 
L 142.693706 124.003984 
L 143.409856 119.44088 
L 144.205578 114.720602 
L 145.0013 110.849735 
L 145.797022 107.86055 
L 146.592744 105.699245 
L 147.468038 104.39684 
L 148.025043 104.011216 
L 148.502476 103.957877 
L 148.900337 104.089022 
L 149.536915 104.599618 
L 150.332637 105.627093 
L 151.605792 107.987524 
L 153.117664 111.378358 
L 154.152102 113.711861 
L 154.311246 113.933077 
L 154.709107 114.960352 
L 154.868252 115.222853 
L 155.266113 116.066328 
L 157.33499 119.611915 
L 157.732851 120.000405 
L 157.971567 120.265454 
L 158.289856 120.705056 
L 158.846861 121.342476 
L 159.16515 121.604828 
L 159.403867 121.65053 
L 159.642583 121.826904 
L 159.801728 121.942302 
L 160.120017 122.26189 
L 163.700765 123.918204 
L 164.019054 123.337964 
L 164.257771 123.76405 
L 164.496487 123.555433 
L 164.894348 123.926994 
L 165.371781 123.687434 
L 165.530926 123.854391 
L 165.69007 123.754443 
L 166.008359 123.984532 
L 166.326648 123.899158 
L 167.281514 124.026273 
L 167.997664 124.184733 
L 168.395525 124.285369 
L 168.713813 123.850103 
L 168.872958 124.135438 
L 169.111674 124.478077 
L 169.270819 124.324176 
L 169.509535 124.012935 
L 169.907396 124.296224 
L 170.305257 124.372775 
L 170.623546 124.530566 
L 170.941835 124.471699 
L 171.657984 124.854492 
L 172.055845 124.791841 
L 172.294562 124.777808 
L 172.771995 125.16118 
L 173.329 125.43278 
L 173.806434 125.868515 
L 173.965578 125.710793 
L 174.283867 125.381643 
L 174.363439 125.446172 
L 174.681728 126.22979 
L 174.920444 125.99007 
L 176.830177 127.462638 
L 177.068894 127.501392 
L 178.02376 128.304115 
L 178.262476 128.186808 
L 178.819482 129.129613 
L 179.058198 128.937101 
L 179.376487 129.322865 
L 179.535631 129.247628 
L 180.013065 129.870407 
L 180.172209 129.906113 
L 181.28622 131.317471 
L 181.445364 131.148615 
L 181.684081 130.872888 
L 182.241086 131.654275 
L 182.40023 131.698332 
L 183.11638 132.37112 
L 183.355097 132.68877 
L 183.991674 133.928974 
L 184.071246 133.830118 
L 184.389535 132.728086 
L 184.54868 133.052136 
L 184.787396 133.71571 
L 185.026113 133.794032 
L 185.344402 134.139418 
L 185.503546 134.131636 
L 186.219696 134.850345 
L 186.856273 135.129764 
L 187.254134 135.548137 
L 187.651995 135.89484 
L 187.731567 121.71913 
L 187.81114 122.433589 
L 187.890712 120.524729 
L 187.970284 120.815018 
L 188.129428 120.989929 
L 188.368145 120.735287 
L 189.004722 119.432173 
L 189.800444 117.806128 
L 190.35745 117.024011 
L 191.073599 116.351582 
L 192.028466 115.938124 
L 193.062904 116.054736 
L 193.460765 116.209993 
L 193.699482 116.330328 
L 194.176915 116.68653 
L 194.893065 117.189742 
L 195.927503 117.8986 
L 196.086648 117.953064 
L 196.484508 118.551377 
L 196.723225 118.701659 
L 198.553386 121.436008 
L 199.746968 123.607094 
L 201.97499 128.030309 
L 202.134134 128.013849 
L 203.646006 130.956302 
L 204.123439 131.536817 
L 204.839589 132.964361 
L 205.078305 132.841007 
L 205.157877 132.820759 
L 205.317022 133.191558 
L 205.635311 133.935832 
L 206.033172 134.401795 
L 206.431033 134.698896 
L 206.988038 135.133856 
L 207.306327 135.686536 
L 207.465471 135.622394 
L 207.624615 136.108535 
L 207.704188 128.763747 
L 207.78376 132.003169 
L 207.863332 128.902368 
L 207.942904 129.415494 
L 208.102049 130.321587 
L 208.49991 130.089984 
L 208.818198 129.425133 
L 209.056915 128.653823 
L 211.125792 119.231701 
L 211.523653 118.15005 
L 212.398947 116.404162 
L 212.717236 116.033035 
L 213.274241 115.765766 
L 213.672102 115.910997 
L 213.831246 115.942482 
L 214.069963 115.419649 
L 214.149535 115.508931 
L 214.388252 116.262998 
L 214.547396 116.084508 
L 214.626968 116.160595 
L 214.865685 116.542306 
L 215.024829 116.675271 
L 215.42269 117.195247 
L 216.13884 118.193239 
L 217.173279 119.760119 
L 217.57114 120.335216 
L 217.730284 120.509063 
L 218.128145 121.335783 
L 218.287289 121.467276 
L 219.958305 124.589299 
L 221.151888 126.342845 
L 221.470177 126.96403 
L 221.788466 127.543278 
L 222.186327 127.792886 
L 223.141193 129.249996 
L 224.49392 130.954266 
L 224.732637 131.056767 
L 224.891781 131.464923 
L 225.21007 132.417543 
L 225.528359 131.253376 
L 225.767075 132.220694 
L 225.846648 132.179116 
L 226.005792 131.839638 
L 226.324081 132.852595 
L 226.483225 132.482539 
L 226.562797 132.526156 
L 226.881086 133.198435 
L 227.199375 133.340055 
L 227.676808 133.862118 
L 227.915525 134.023272 
L 228.552102 134.932512 
L 228.949963 135.767474 
L 229.109107 135.19661 
L 229.268252 134.667665 
L 229.506968 135.106377 
L 229.586541 134.994618 
L 229.825257 134.348832 
L 229.984402 135.052441 
L 230.223118 136.080057 
L 230.541407 135.56827 
L 230.620979 151.207979 
L 230.859696 133.753534 
L 231.177984 134.669262 
L 231.416701 134.632328 
L 231.496273 134.66455 
L 231.73499 134.428794 
L 231.894134 134.381683 
L 232.132851 134.217284 
L 232.291995 134.163776 
L 232.928573 133.116159 
L 233.485578 130.656102 
L 233.56515 130.717494 
L 233.724295 130.813065 
L 233.883439 130.566021 
L 234.122156 129.397799 
L 234.440444 128.017279 
L 234.838305 127.500268 
L 235.236166 126.38785 
L 236.350177 124.944681 
L 236.907182 124.805123 
L 237.225471 123.853991 
L 237.384615 124.17654 
L 237.623332 124.613667 
L 237.782476 124.203479 
L 238.021193 123.644135 
L 238.25991 124.115526 
L 238.419054 124.006568 
L 238.578198 124.317142 
L 238.816915 123.968885 
L 238.976059 124.48507 
L 239.055631 124.427069 
L 239.294348 124.090373 
L 239.453492 124.075802 
L 239.533065 124.047839 
L 239.692209 124.436114 
L 239.851353 124.83506 
L 240.010498 124.546134 
L 240.169642 124.237779 
L 240.328787 124.519375 
L 240.487931 124.759268 
L 240.647075 124.791039 
L 240.965364 125.31097 
L 241.044936 125.251113 
L 241.363225 124.801479 
L 241.522369 124.998688 
L 241.840658 125.572712 
L 242.158947 125.876142 
L 242.477236 126.489436 
L 242.63638 125.700109 
L 242.795525 124.831707 
L 242.954669 125.6991 
L 243.113813 126.353632 
L 243.272958 125.979224 
L 243.35253 126.027546 
L 243.591246 126.762581 
L 243.670819 126.729072 
L 243.829963 126.59098 
L 244.546113 127.097568 
L 244.864402 127.717787 
L 245.421407 127.976958 
L 245.660123 128.033656 
L 245.89884 128.546506 
L 246.217129 129.342492 
L 246.296701 129.311352 
L 246.535418 128.606742 
L 246.61499 128.651494 
L 247.171995 130.288502 
L 247.490284 130.646164 
L 247.967717 131.564125 
L 248.126861 131.737534 
L 248.763439 133.889455 
L 248.922583 133.629059 
L 249.081728 133.484853 
L 249.240872 134.179751 
L 249.559161 135.6134 
L 249.718305 135.853624 
L 249.957022 137.178007 
L 250.036594 165.96 
L 250.116166 159.205798 
L 250.195738 137.340023 
L 250.275311 137.658638 
L 250.434455 137.412349 
L 250.593599 137.039203 
L 250.593893 218.536853 
L 250.593893 218.536853 
" clip-path="url(#p0cfe471293)" style="fill: none; stroke: #ce0037; stroke-linecap: square"/>
   </g>
   <g id="patch_7">
    <path d="M 37.936915 173.52 
L 37.936915 7.2 
" style="fill: none; stroke: #000000; stroke-width: 0.5; stroke-linejoin: miter; stroke-linecap: square"/>
   </g>
   <g id="patch_8">
    <path d="M 261.136915 173.52 
L 261.136915 7.2 
" style="fill: none; stroke: #000000; stroke-width: 0.5; stroke-linejoin: miter; stroke-linecap: square"/>
   </g>
   <g id="patch_9">
    <path d="M 37.936915 173.52 
L 261.136915 173.52 
" style="fill: none; stroke: #000000; stroke-width: 0.5; stroke-linejoin: miter; stroke-linecap: square"/>
   </g>
   <g id="patch_10">
    <path d="M 37.936915 7.2 
L 261.136915 7.2 
" style="fill: none; stroke: #000000; stroke-width: 0.5; stroke-linejoin: miter; stroke-linecap: square"/>
   </g>
  </g>
 </g>
 <defs>
  <clipPath id="p0cfe471293">
   <rect x="37.936915" y="7.2" width="223.2" height="166.32"/>
  </clipPath>
 </defs>
</svg>
