<?xml version="1.0" encoding="utf-8" standalone="no"?>
<!DOCTYPE svg PUBLIC "-//W3C//DTD SVG 1.1//EN"
  "http://www.w3.org/Graphics/SVG/1.1/DTD/svg11.dtd">
<svg xmlns:xlink="http://www.w3.org/1999/xlink" width="254.308378pt" height="218.10771pt" viewBox="0 0 254.308378 218.10771" xmlns="http://www.w3.org/2000/svg" version="1.1">
 <metadata>
  <rdf:RDF xmlns:dc="http://purl.org/dc/elements/1.1/" xmlns:cc="http://creativecommons.org/ns#" xmlns:rdf="http://www.w3.org/1999/02/22-rdf-syntax-ns#">
   <cc:Work>
    <dc:type rdf:resource="http://purl.org/dc/dcmitype/StillImage"/>
    <dc:date>2025-02-14T16:44:31.965700</dc:date>
    <dc:format>image/svg+xml</dc:format>
    <dc:creator>
     <cc:Agent>
      <dc:title>Matplotlib v3.8.0, https://matplotlib.org/</dc:title>
     </cc:Agent>
    </dc:creator>
   </cc:Work>
  </rdf:RDF>
 </metadata>
 <defs>
  <style type="text/css">*{stroke-linejoin: round; stroke-linecap: butt}</style>
 </defs>
 <g id="figure_1">
  <g id="patch_1">
   <path d="M 0 218.10771 
L 254.308378 218.10771 
L 254.308378 -0 
L 0 -0 
z
" style="fill: #ffffff"/>
  </g>
  <g id="axes_1">
   <g id="patch_2">
    <path d="M 51.791029 177.778992 
L 219.191029 177.778992 
L 219.191029 11.458992 
L 51.791029 11.458992 
z
" style="fill: #ffffff"/>
   </g>
   <g id="matplotlib.axis_1">
    <g id="xtick_1">
     <g id="line2d_1">
      <path d="M 59.40012 177.778992 
L 59.40012 11.458992 
" clip-path="url(#pbc63733a9a)" style="fill: none; stroke: #b0b0b0; stroke-width: 0.8; stroke-linecap: square"/>
     </g>
     <g id="line2d_2">
      <defs>
       <path id="m2fadc143a5" d="M 0 0 
L 0 3.5 
" style="stroke: #000000; stroke-width: 0.8"/>
      </defs>
      <g>
       <use xlink:href="#m2fadc143a5" x="59.40012" y="177.778992" style="stroke: #000000; stroke-width: 0.8"/>
      </g>
     </g>
     <g id="text_1">
      <!-- $\mathdefault{0}$ -->
      <g transform="translate(56.473625 193.296976) scale(0.12 -0.12)">
       <defs>
        <path id="CMR17-30" d="M 2688 2038 
C 2688 2430 2682 3099 2413 3613 
C 2176 4063 1798 4224 1466 4224 
C 1158 4224 768 4082 525 3620 
C 269 3137 243 2539 243 2038 
C 243 1671 250 1112 448 623 
C 723 -39 1216 -128 1466 -128 
C 1760 -128 2208 -7 2470 604 
C 2662 1048 2688 1568 2688 2038 
z
M 1466 -26 
C 1056 -26 813 328 723 816 
C 653 1196 653 1749 653 2109 
C 653 2604 653 3015 736 3407 
C 858 3954 1216 4121 1466 4121 
C 1728 4121 2067 3947 2189 3420 
C 2272 3054 2278 2623 2278 2109 
C 2278 1691 2278 1176 2202 797 
C 2067 96 1690 -26 1466 -26 
z
" transform="scale(0.015625)"/>
       </defs>
       <use xlink:href="#CMR17-30" transform="scale(0.996264)"/>
      </g>
     </g>
    </g>
    <g id="xtick_2">
     <g id="line2d_3">
      <path d="M 119.079264 177.778992 
L 119.079264 11.458992 
" clip-path="url(#pbc63733a9a)" style="fill: none; stroke: #b0b0b0; stroke-width: 0.8; stroke-linecap: square"/>
     </g>
     <g id="line2d_4">
      <g>
       <use xlink:href="#m2fadc143a5" x="119.079264" y="177.778992" style="stroke: #000000; stroke-width: 0.8"/>
      </g>
     </g>
     <g id="text_2">
      <!-- $\mathdefault{1000}$ -->
      <g transform="translate(107.373284 193.296976) scale(0.12 -0.12)">
       <defs>
        <path id="CMR17-31" d="M 1702 4083 
C 1702 4217 1696 4224 1606 4224 
C 1357 3927 979 3833 621 3820 
C 602 3820 570 3820 563 3808 
C 557 3795 557 3782 557 3648 
C 755 3648 1088 3686 1344 3839 
L 1344 467 
C 1344 243 1331 166 781 166 
L 589 166 
L 589 0 
C 896 6 1216 12 1523 12 
C 1830 12 2150 6 2458 0 
L 2458 166 
L 2266 166 
C 1715 166 1702 236 1702 467 
L 1702 4083 
z
" transform="scale(0.015625)"/>
       </defs>
       <use xlink:href="#CMR17-31" transform="scale(0.996264)"/>
       <use xlink:href="#CMR17-30" transform="translate(45.690477 0) scale(0.996264)"/>
       <use xlink:href="#CMR17-30" transform="translate(91.380954 0) scale(0.996264)"/>
       <use xlink:href="#CMR17-30" transform="translate(137.071431 0) scale(0.996264)"/>
      </g>
     </g>
    </g>
    <g id="xtick_3">
     <g id="line2d_5">
      <path d="M 178.758409 177.778992 
L 178.758409 11.458992 
" clip-path="url(#pbc63733a9a)" style="fill: none; stroke: #b0b0b0; stroke-width: 0.8; stroke-linecap: square"/>
     </g>
     <g id="line2d_6">
      <g>
       <use xlink:href="#m2fadc143a5" x="178.758409" y="177.778992" style="stroke: #000000; stroke-width: 0.8"/>
      </g>
     </g>
     <g id="text_3">
      <!-- $\mathdefault{2000}$ -->
      <g transform="translate(167.052428 193.296976) scale(0.12 -0.12)">
       <defs>
        <path id="CMR17-32" d="M 2669 990 
L 2554 990 
C 2490 537 2438 460 2413 422 
C 2381 371 1920 371 1830 371 
L 602 371 
C 832 620 1280 1073 1824 1596 
C 2214 1966 2669 2400 2669 3033 
C 2669 3788 2067 4224 1395 4224 
C 691 4224 262 3603 262 3027 
C 262 2777 448 2745 525 2745 
C 589 2745 781 2783 781 3007 
C 781 3206 614 3264 525 3264 
C 486 3264 448 3257 422 3244 
C 544 3788 915 4057 1306 4057 
C 1862 4057 2227 3616 2227 3033 
C 2227 2477 1901 1998 1536 1583 
L 262 147 
L 262 0 
L 2515 0 
L 2669 990 
z
" transform="scale(0.015625)"/>
       </defs>
       <use xlink:href="#CMR17-32" transform="scale(0.996264)"/>
       <use xlink:href="#CMR17-30" transform="translate(45.690477 0) scale(0.996264)"/>
       <use xlink:href="#CMR17-30" transform="translate(91.380954 0) scale(0.996264)"/>
       <use xlink:href="#CMR17-30" transform="translate(137.071431 0) scale(0.996264)"/>
      </g>
     </g>
    </g>
    <g id="text_4">
     <!-- Epochs -->
     <g transform="translate(115.555951 208.361335) scale(0.12 -0.12)">
      <defs>
       <path id="NimbusSanL-Regu-45" d="M 1171 2112 
L 3712 2112 
L 3712 2636 
L 1171 2636 
L 1171 4147 
L 3808 4147 
L 3808 4672 
L 576 4672 
L 576 0 
L 3923 0 
L 3923 524 
L 1171 524 
L 1171 2112 
z
" transform="scale(0.015625)"/>
       <path id="NimbusSanL-Regu-70" d="M 346 -1408 
L 883 -1408 
L 883 371 
C 1165 25 1478 -128 1914 -128 
C 2778 -128 3347 568 3347 1632 
C 3347 2752 2797 3456 1907 3456 
C 1453 3456 1088 3251 838 2854 
L 838 3359 
L 346 3359 
L 346 -1408 
z
M 1818 2956 
C 2406 2956 2790 2440 2790 1644 
C 2790 887 2400 371 1818 371 
C 1254 371 883 880 883 1663 
C 883 2447 1254 2956 1818 2956 
z
" transform="scale(0.015625)"/>
       <path id="NimbusSanL-Regu-6f" d="M 1741 3456 
C 800 3456 230 2784 230 1663 
C 230 543 794 -128 1747 -128 
C 2688 -128 3264 543 3264 1638 
C 3264 2791 2707 3456 1741 3456 
z
M 1747 2963 
C 2349 2963 2707 2472 2707 1644 
C 2707 861 2336 364 1747 364 
C 1152 364 787 855 787 1663 
C 787 2466 1152 2963 1747 2963 
z
" transform="scale(0.015625)"/>
       <path id="NimbusSanL-Regu-63" d="M 3014 2237 
C 2989 2561 2918 2771 2790 2956 
C 2560 3270 2157 3456 1690 3456 
C 787 3456 198 2740 198 1632 
C 198 555 774 -128 1683 -128 
C 2483 -128 2989 352 3053 1167 
L 2515 1167 
C 2426 632 2150 364 1696 364 
C 1107 364 755 842 755 1632 
C 755 2466 1101 2963 1683 2963 
C 2131 2963 2413 2701 2477 2237 
L 3014 2237 
z
" transform="scale(0.015625)"/>
       <path id="NimbusSanL-Regu-68" d="M 448 4672 
L 448 0 
L 979 0 
L 979 1853 
C 979 2539 1338 2988 1888 2988 
C 2061 2988 2234 2930 2362 2834 
C 2515 2725 2579 2565 2579 2328 
L 2579 0 
L 3110 0 
L 3110 2539 
C 3110 3103 2707 3456 2054 3456 
C 1581 3456 1293 3308 979 2898 
L 979 4672 
L 448 4672 
z
" transform="scale(0.015625)"/>
       <path id="NimbusSanL-Regu-73" d="M 2803 2428 
C 2797 3084 2362 3456 1587 3456 
C 806 3456 301 3052 301 2434 
C 301 1912 570 1663 1363 1472 
L 1862 1351 
C 2234 1262 2381 1129 2381 887 
C 2381 574 2067 364 1600 364 
C 1312 364 1069 447 934 587 
C 851 683 813 778 781 1014 
L 218 1014 
C 243 243 678 -128 1555 -128 
C 2400 -128 2938 288 2938 931 
C 2938 1428 2656 1702 1990 1861 
L 1478 1982 
C 1043 2084 858 2224 858 2459 
C 858 2765 1133 2963 1568 2963 
C 1997 2963 2227 2778 2240 2428 
L 2803 2428 
z
" transform="scale(0.015625)"/>
      </defs>
      <use xlink:href="#NimbusSanL-Regu-45" transform="scale(0.996264)"/>
      <use xlink:href="#NimbusSanL-Regu-70" transform="translate(66.450031 0) scale(0.996264)"/>
      <use xlink:href="#NimbusSanL-Regu-6f" transform="translate(121.841708 0) scale(0.996264)"/>
      <use xlink:href="#NimbusSanL-Regu-63" transform="translate(177.233385 0) scale(0.996264)"/>
      <use xlink:href="#NimbusSanL-Regu-68" transform="translate(227.046586 0) scale(0.996264)"/>
      <use xlink:href="#NimbusSanL-Regu-73" transform="translate(282.438263 0) scale(0.996264)"/>
     </g>
    </g>
   </g>
   <g id="matplotlib.axis_2">
    <g id="ytick_1">
     <g id="line2d_7">
      <path d="M 51.791029 177.778992 
L 219.191029 177.778992 
" clip-path="url(#pbc63733a9a)" style="fill: none; stroke: #b0b0b0; stroke-width: 0.8; stroke-linecap: square"/>
     </g>
     <g id="line2d_8">
      <defs>
       <path id="mcc3cd472a2" d="M 0 0 
L -3.5 0 
" style="stroke: #000000; stroke-width: 0.8"/>
      </defs>
      <g>
       <use xlink:href="#mcc3cd472a2" x="51.791029" y="177.778992" style="stroke: #000000; stroke-width: 0.8"/>
      </g>
     </g>
     <g id="text_5">
      <!-- $10^{-7}$ -->
      <g style="fill: #01426a" transform="translate(22.264359 182.037984) scale(0.12 -0.12)">
       <defs>
        <path id="CMSY10-0" d="M 4218 1472 
C 4326 1472 4442 1472 4442 1600 
C 4442 1728 4326 1728 4218 1728 
L 755 1728 
C 646 1728 531 1728 531 1600 
C 531 1472 646 1472 755 1472 
L 4218 1472 
z
" transform="scale(0.015625)"/>
        <path id="CMR17-37" d="M 2886 3955 
L 2886 4096 
L 1382 4096 
C 634 4096 621 4166 595 4288 
L 480 4288 
L 294 3104 
L 410 3104 
C 429 3226 474 3552 550 3673 
C 589 3724 1062 3724 1171 3724 
L 2579 3724 
L 1869 2670 
C 1395 1961 1069 1003 1069 166 
C 1069 89 1069 -128 1299 -128 
C 1530 -128 1530 89 1530 172 
L 1530 466 
C 1530 1514 1709 2204 2003 2644 
L 2886 3955 
z
" transform="scale(0.015625)"/>
       </defs>
       <use xlink:href="#CMR17-31" transform="scale(0.996264)"/>
       <use xlink:href="#CMR17-30" transform="translate(45.690477 0) scale(0.996264)"/>
       <use xlink:href="#CMSY10-0" transform="translate(91.380954 36.153639) scale(0.697382)"/>
       <use xlink:href="#CMR17-37" transform="translate(145.621947 36.153639) scale(0.697382)"/>
      </g>
     </g>
    </g>
    <g id="ytick_2">
     <g id="line2d_9">
      <path d="M 51.791029 135.000821 
L 219.191029 135.000821 
" clip-path="url(#pbc63733a9a)" style="fill: none; stroke: #b0b0b0; stroke-width: 0.8; stroke-linecap: square"/>
     </g>
     <g id="line2d_10">
      <g>
       <use xlink:href="#mcc3cd472a2" x="51.791029" y="135.000821" style="stroke: #000000; stroke-width: 0.8"/>
      </g>
     </g>
     <g id="text_6">
      <!-- $10^{-5}$ -->
      <g style="fill: #01426a" transform="translate(22.264359 139.259813) scale(0.12 -0.12)">
       <defs>
        <path id="CMR17-35" d="M 730 3750 
C 794 3724 1056 3641 1325 3641 
C 1920 3641 2246 3961 2432 4140 
C 2432 4191 2432 4224 2394 4224 
C 2387 4224 2374 4224 2323 4198 
C 2099 4102 1837 4032 1517 4032 
C 1325 4032 1037 4055 723 4191 
C 653 4224 640 4224 634 4224 
C 602 4224 595 4217 595 4090 
L 595 2231 
C 595 2113 595 2080 659 2080 
C 691 2080 704 2093 736 2139 
C 941 2435 1222 2560 1542 2560 
C 1766 2560 2246 2415 2246 1293 
C 2246 1087 2246 716 2054 422 
C 1894 159 1645 25 1370 25 
C 947 25 518 319 403 812 
C 429 806 480 793 506 793 
C 589 793 749 838 749 1036 
C 749 1209 627 1280 506 1280 
C 358 1280 262 1190 262 1011 
C 262 454 704 -128 1382 -128 
C 2042 -128 2669 441 2669 1267 
C 2669 2054 2170 2662 1549 2662 
C 1222 2662 947 2540 730 2304 
L 730 3750 
z
" transform="scale(0.015625)"/>
       </defs>
       <use xlink:href="#CMR17-31" transform="scale(0.996264)"/>
       <use xlink:href="#CMR17-30" transform="translate(45.690477 0) scale(0.996264)"/>
       <use xlink:href="#CMSY10-0" transform="translate(91.380954 36.153639) scale(0.697382)"/>
       <use xlink:href="#CMR17-35" transform="translate(145.621947 36.153639) scale(0.697382)"/>
      </g>
     </g>
    </g>
    <g id="ytick_3">
     <g id="line2d_11">
      <path d="M 51.791029 92.22265 
L 219.191029 92.22265 
" clip-path="url(#pbc63733a9a)" style="fill: none; stroke: #b0b0b0; stroke-width: 0.8; stroke-linecap: square"/>
     </g>
     <g id="line2d_12">
      <g>
       <use xlink:href="#mcc3cd472a2" x="51.791029" y="92.22265" style="stroke: #000000; stroke-width: 0.8"/>
      </g>
     </g>
     <g id="text_7">
      <!-- $10^{-3}$ -->
      <g style="fill: #01426a" transform="translate(22.264359 96.481642) scale(0.12 -0.12)">
       <defs>
        <path id="CMR17-33" d="M 1414 2176 
C 1984 2176 2234 1673 2234 1094 
C 2234 322 1824 25 1453 25 
C 1114 25 563 193 390 691 
C 422 678 454 678 486 678 
C 640 678 755 780 755 947 
C 755 1132 614 1216 486 1216 
C 378 1216 211 1164 211 927 
C 211 335 787 -128 1466 -128 
C 2176 -128 2720 432 2720 1087 
C 2720 1718 2208 2176 1600 2246 
C 2086 2347 2554 2776 2554 3353 
C 2554 3856 2048 4224 1472 4224 
C 890 4224 378 3862 378 3347 
C 378 3123 544 3084 627 3084 
C 762 3084 877 3167 877 3334 
C 877 3500 762 3584 627 3584 
C 602 3584 570 3584 544 3571 
C 730 3999 1235 4076 1459 4076 
C 1683 4076 2106 3966 2106 3347 
C 2106 3167 2080 2851 1862 2574 
C 1670 2329 1453 2316 1242 2297 
C 1210 2297 1062 2284 1037 2284 
C 992 2278 966 2272 966 2227 
C 966 2182 973 2176 1101 2176 
L 1414 2176 
z
" transform="scale(0.015625)"/>
       </defs>
       <use xlink:href="#CMR17-31" transform="scale(0.996264)"/>
       <use xlink:href="#CMR17-30" transform="translate(45.690477 0) scale(0.996264)"/>
       <use xlink:href="#CMSY10-0" transform="translate(91.380954 36.153639) scale(0.697382)"/>
       <use xlink:href="#CMR17-33" transform="translate(145.621947 36.153639) scale(0.697382)"/>
      </g>
     </g>
    </g>
    <g id="ytick_4">
     <g id="line2d_13">
      <path d="M 51.791029 49.444478 
L 219.191029 49.444478 
" clip-path="url(#pbc63733a9a)" style="fill: none; stroke: #b0b0b0; stroke-width: 0.8; stroke-linecap: square"/>
     </g>
     <g id="line2d_14">
      <g>
       <use xlink:href="#mcc3cd472a2" x="51.791029" y="49.444478" style="stroke: #000000; stroke-width: 0.8"/>
      </g>
     </g>
     <g id="text_8">
      <!-- $10^{-1}$ -->
      <g style="fill: #01426a" transform="translate(22.264359 53.703471) scale(0.12 -0.12)">
       <use xlink:href="#CMR17-31" transform="scale(0.996264)"/>
       <use xlink:href="#CMR17-30" transform="translate(45.690477 0) scale(0.996264)"/>
       <use xlink:href="#CMSY10-0" transform="translate(91.380954 36.153639) scale(0.697382)"/>
       <use xlink:href="#CMR17-31" transform="translate(145.621947 36.153639) scale(0.697382)"/>
      </g>
     </g>
    </g>
    <g id="text_9">
     <!-- Loss decay -->
     <g style="fill: #01426a" transform="translate(15.717984 124.674064) rotate(-90) scale(0.12 -0.12)">
      <defs>
       <path id="NimbusSanL-Regu-4c" d="M 1107 4672 
L 512 4672 
L 512 0 
L 3411 0 
L 3411 524 
L 1107 524 
L 1107 4672 
z
" transform="scale(0.015625)"/>
       <path id="NimbusSanL-Regu-64" d="M 3168 4672 
L 2637 4672 
L 2637 2937 
C 2413 3276 2054 3456 1606 3456 
C 736 3456 166 2759 166 1695 
C 166 568 723 -128 1626 -128 
C 2086 -128 2406 44 2694 460 
L 2694 19 
L 3168 19 
L 3168 4672 
z
M 1696 2956 
C 2272 2956 2637 2447 2637 1651 
C 2637 880 2266 371 1702 371 
C 1114 371 723 887 723 1663 
C 723 2440 1114 2956 1696 2956 
z
" transform="scale(0.015625)"/>
       <path id="NimbusSanL-Regu-65" d="M 3283 1484 
C 3283 1998 3245 2311 3149 2565 
C 2931 3123 2419 3456 1792 3456 
C 858 3456 256 2734 256 1619 
C 256 545 838 -128 1779 -128 
C 2547 -128 3078 307 3213 1018 
L 2675 1018 
C 2528 588 2227 364 1798 364 
C 1459 364 1171 514 992 787 
C 864 974 819 1161 813 1484 
L 3283 1484 
z
M 826 1920 
C 870 2552 1248 2963 1786 2963 
C 2310 2963 2714 2519 2714 1959 
C 2714 1946 2714 1933 2707 1920 
L 826 1920 
z
" transform="scale(0.015625)"/>
       <path id="NimbusSanL-Regu-61" d="M 3424 332 
C 3366 320 3341 320 3309 320 
C 3123 320 3021 415 3021 581 
L 3021 2542 
C 3021 3135 2586 3456 1760 3456 
C 1274 3456 870 3315 646 3065 
C 493 2893 429 2702 416 2370 
L 954 2370 
C 998 2778 1242 2963 1741 2963 
C 2221 2963 2490 2784 2490 2466 
L 2490 2326 
C 2490 2103 2355 2007 1933 1956 
C 1178 1861 1062 1835 858 1753 
C 467 1593 269 1294 269 861 
C 269 256 691 -128 1370 -128 
C 1792 -128 2131 19 2509 364 
C 2547 25 2714 -128 3059 -128 
C 3168 -128 3251 -116 3424 -71 
L 3424 332 
z
M 2490 1071 
C 2490 893 2438 785 2278 638 
C 2061 441 1798 339 1485 339 
C 1069 339 826 536 826 874 
C 826 1224 1062 1402 1632 1485 
C 2195 1562 2310 1587 2490 1670 
L 2490 1071 
z
" transform="scale(0.015625)"/>
       <path id="NimbusSanL-Regu-79" d="M 2483 3328 
L 1555 724 
L 698 3328 
L 128 3328 
L 1261 -29 
L 1056 -558 
C 973 -794 851 -884 627 -884 
C 550 -884 461 -871 346 -845 
L 346 -1325 
C 454 -1383 563 -1408 704 -1408 
C 877 -1408 1062 -1351 1203 -1248 
C 1370 -1127 1466 -986 1568 -718 
L 3059 3328 
L 2483 3328 
z
" transform="scale(0.015625)"/>
      </defs>
      <use xlink:href="#NimbusSanL-Regu-4c" transform="scale(0.996264)"/>
      <use xlink:href="#NimbusSanL-Regu-6f" transform="translate(55.391677 0) scale(0.996264)"/>
      <use xlink:href="#NimbusSanL-Regu-73" transform="translate(110.783354 0) scale(0.996264)"/>
      <use xlink:href="#NimbusSanL-Regu-73" transform="translate(160.596554 0) scale(0.996264)"/>
      <use xlink:href="#NimbusSanL-Regu-64" transform="translate(238.104925 0) scale(0.996264)"/>
      <use xlink:href="#NimbusSanL-Regu-65" transform="translate(293.496601 0) scale(0.996264)"/>
      <use xlink:href="#NimbusSanL-Regu-63" transform="translate(348.888278 0) scale(0.996264)"/>
      <use xlink:href="#NimbusSanL-Regu-61" transform="translate(398.701479 0) scale(0.996264)"/>
      <use xlink:href="#NimbusSanL-Regu-79" transform="translate(451.105048 0) scale(0.996264)"/>
     </g>
    </g>
   </g>
   <g id="line2d_15">
    <path d="M 59.40012 59.410138 
L 59.996911 58.974687 
L 61.011457 58.299689 
L 61.369532 57.695677 
L 61.727606 56.597634 
L 62.085681 54.698967 
L 62.443756 51.46265 
L 62.742152 46.77662 
L 62.980868 39.456666 
L 63.100227 31.01437 
L 63.159906 18.741905 
L 63.219585 23.788631 
L 63.398622 39.833856 
L 63.697018 47.497456 
L 64.114772 52.395396 
L 64.592205 55.516633 
L 65.188997 58.024745 
L 66.084184 60.735003 
L 67.934237 65.441144 
L 70.142366 70.54536 
L 72.290815 74.936565 
L 74.618302 79.181217 
L 79.870066 88.552065 
L 81.779799 92.602312 
L 83.80889 97.422543 
L 86.315414 103.990481 
L 93.954344 124.450569 
L 96.580227 130.86368 
L 98.728676 135.876655 
L 98.907713 126.731015 
L 99.027072 126.496951 
L 99.265788 124.973048 
L 101.294879 109.558097 
L 101.95135 106.571912 
L 102.488462 104.985447 
L 103.025574 104.057118 
L 103.443328 103.738895 
L 103.801403 103.733345 
L 104.338516 104.036286 
L 104.875628 104.304556 
L 105.353061 104.232535 
L 105.830494 103.950525 
L 107.024077 103.211236 
L 108.21766 103.189905 
L 109.291884 103.884157 
L 110.187072 104.892215 
L 112.216163 108.434155 
L 117.050173 119.287766 
L 118.840548 122.249345 
L 119.616376 123.529632 
L 119.795414 123.963449 
L 119.855093 123.939647 
L 120.03413 123.580496 
L 120.153489 124.0773 
L 120.272847 124.401051 
L 120.392205 124.35384 
L 120.929318 125.281258 
L 121.108355 125.461581 
L 121.46643 125.976752 
L 121.764826 126.334907 
L 122.003542 126.68303 
L 122.18258 126.96268 
L 122.540655 127.671161 
L 122.719692 127.254745 
L 122.898729 128.005574 
L 122.958409 127.980326 
L 123.077767 127.993559 
L 123.913275 129.274526 
L 124.092312 129.607331 
L 124.450387 129.616389 
L 124.629425 130.128285 
L 124.748783 130.094742 
L 125.106858 130.62258 
L 125.226216 130.701679 
L 125.882687 131.537347 
L 126.181082 131.990334 
L 126.36012 132.632608 
L 126.479478 133.273877 
L 126.539157 133.195145 
L 126.718195 131.448512 
L 126.777874 131.763182 
L 126.956911 132.431218 
L 127.01659 132.506815 
L 127.135949 133.018522 
L 127.195628 132.940808 
L 127.314986 132.635694 
L 127.494024 133.487386 
L 127.613382 133.040885 
L 127.673061 133.132982 
L 127.852098 133.782521 
L 127.971457 133.516467 
L 128.150494 133.932357 
L 128.210173 133.872021 
L 128.269852 133.796574 
L 128.329532 133.857217 
L 128.508569 134.347202 
L 128.568248 134.312308 
L 128.687606 134.296818 
L 129.224719 134.845616 
L 129.582794 135.314281 
L 129.761831 135.592366 
L 129.940868 125.614733 
L 130.000548 125.57565 
L 130.358622 123.981908 
L 131.25381 116.778347 
L 132.148997 110.979911 
L 132.805467 107.971132 
L 133.521617 105.796387 
L 134.058729 104.943126 
L 134.357125 104.721909 
L 134.7152 104.670526 
L 135.013596 104.796864 
L 135.491029 105.288746 
L 136.08782 106.278563 
L 137.102366 108.712102 
L 138.713703 113.48485 
L 138.952419 114.067009 
L 139.071778 114.280118 
L 139.429852 115.361619 
L 140.742794 118.613565 
L 141.518622 120.007372 
L 141.876697 120.528912 
L 142.234772 121.028636 
L 142.771884 121.657327 
L 142.891243 121.714713 
L 143.308997 122.224266 
L 143.905788 122.630939 
L 144.323542 122.90135 
L 144.800975 123.147699 
L 145.696163 123.552778 
L 146.113917 123.899273 
L 146.352633 123.340299 
L 146.531671 123.750768 
L 146.59135 123.678168 
L 146.710708 123.549798 
L 147.009104 123.90774 
L 147.367179 123.67696 
L 147.486537 123.837798 
L 147.605895 123.741514 
L 147.665574 123.805807 
L 147.844612 123.963169 
L 148.083328 123.880924 
L 148.859157 124.009915 
L 149.33659 124.156032 
L 149.634986 124.25298 
L 149.873703 123.833668 
L 149.933382 123.928116 
L 150.172098 124.438625 
L 150.291457 124.290364 
L 150.470494 123.990532 
L 150.76889 124.263437 
L 151.126965 124.41259 
L 151.306002 124.48919 
L 151.544719 124.432481 
L 152.14151 124.804633 
L 152.559264 124.72737 
L 152.917339 125.096692 
L 153.335093 125.358336 
L 153.693168 125.778101 
L 153.872205 125.503142 
L 154.051243 125.309074 
L 154.170601 125.578085 
L 154.349639 126.126134 
L 154.528676 125.895201 
L 154.588355 125.958146 
L 154.886751 126.375329 
L 155.722259 127.095776 
L 155.960975 127.313796 
L 156.140013 127.35113 
L 156.856163 128.124432 
L 157.0352 128.011425 
L 157.452954 128.919675 
L 157.512633 128.848626 
L 157.631991 128.734218 
L 157.870708 129.105843 
L 157.990066 129.033364 
L 158.288462 129.672067 
L 158.348141 129.633317 
L 158.467499 129.667714 
L 159.303007 131.027343 
L 159.422366 130.864677 
L 159.601403 130.599056 
L 160.019157 131.351803 
L 160.138516 131.394245 
L 161.153061 133.064607 
L 161.332098 133.54313 
L 161.391778 133.447897 
L 161.630494 132.386257 
L 161.690173 132.475827 
L 161.988569 133.353944 
L 162.107927 133.413134 
L 162.346644 133.745861 
L 162.466002 133.738365 
L 163.003114 134.430731 
L 163.480548 134.699909 
L 163.898302 135.250656 
L 164.077339 135.436944 
L 164.137018 121.780798 
L 164.196697 122.469071 
L 164.256376 120.630175 
L 164.316056 120.909823 
L 164.435414 121.078324 
L 164.614451 120.833015 
L 165.151564 119.395611 
L 165.748355 117.877016 
L 166.225788 117.088316 
L 166.703221 116.569796 
L 167.598409 116.187854 
L 168.135521 116.324014 
L 168.493596 116.485877 
L 168.791991 116.812518 
L 169.925895 117.88661 
L 170.224291 118.16127 
L 170.343649 118.078388 
L 170.522687 118.470193 
L 170.761403 118.759977 
L 170.940441 118.980948 
L 171.596911 120.182232 
L 171.895307 120.748208 
L 174.163114 126.191066 
L 174.819585 127.860661 
L 174.879264 127.813198 
L 174.938943 127.844805 
L 176.132526 130.749873 
L 176.430922 131.23865 
L 176.968034 132.613872 
L 177.26643 132.587595 
L 177.624505 133.612892 
L 178.579371 134.703852 
L 178.818088 135.236274 
L 178.937446 135.174484 
L 179.056804 135.642806 
L 179.116483 128.567218 
L 179.176163 131.68791 
L 179.235842 128.700758 
L 179.295521 129.195077 
L 179.414879 130.067961 
L 179.474558 130.040272 
L 179.951991 129.204363 
L 180.190708 128.093251 
L 180.668141 125.275268 
L 180.847179 124.229336 
L 181.145574 122.238268 
L 181.44397 120.694265 
L 182.16012 117.773011 
L 182.518195 116.909683 
L 182.935949 116.253804 
L 183.294024 116.045635 
L 183.771457 116.083512 
L 183.890815 115.712204 
L 183.950494 115.798213 
L 184.129532 116.524643 
L 184.189211 116.442088 
L 184.24889 116.352695 
L 184.308569 116.425993 
L 184.487606 116.793714 
L 184.606965 116.921805 
L 184.96504 117.550645 
L 185.740868 118.836028 
L 186.098943 119.610778 
L 186.934451 121.411502 
L 187.05381 121.538176 
L 188.42643 124.775781 
L 188.784505 125.456051 
L 189.261938 126.345661 
L 189.858729 127.466668 
L 190.037767 127.765501 
L 190.694237 129.035645 
L 191.768462 130.692136 
L 191.88782 130.776195 
L 192.066858 131.492973 
L 192.245895 132.087096 
L 192.484612 130.965598 
L 192.663649 131.897462 
L 192.723328 131.857407 
L 192.842687 131.530372 
L 193.081403 132.506203 
L 193.141082 132.298424 
L 193.200762 132.14971 
L 193.260441 132.191728 
L 193.558836 132.859973 
L 193.737874 132.975796 
L 194.155628 133.501821 
L 194.394344 133.830014 
L 194.752419 134.509887 
L 195.050815 135.314246 
L 195.289532 134.254747 
L 195.40889 134.562839 
L 195.468569 134.67738 
L 195.528248 134.569717 
L 195.707286 133.9476 
L 195.826644 134.62542 
L 196.005681 135.615373 
L 196.244398 135.122344 
L 196.304077 150.18883 
L 196.363756 141.956747 
L 196.483114 133.374121 
L 196.721831 134.256286 
L 196.900868 134.220706 
L 196.960548 134.251746 
L 197.139585 134.024632 
L 197.258943 133.979247 
L 197.437981 133.820874 
L 197.557339 133.769326 
L 198.034772 132.760106 
L 198.452526 130.390215 
L 198.512205 130.449357 
L 198.631564 130.541425 
L 198.750922 130.303436 
L 198.989639 128.710228 
L 199.228355 127.774998 
L 199.347713 127.730074 
L 199.526751 127.056993 
L 199.825147 126.17172 
L 200.600975 124.888128 
L 201.018729 124.753684 
L 201.257446 123.837413 
L 201.317125 123.933915 
L 201.555842 124.569246 
L 201.734879 123.886802 
L 201.854237 123.635249 
L 202.033275 124.089362 
L 202.092954 123.952517 
L 202.152633 123.984397 
L 202.271991 124.283589 
L 202.39135 123.915076 
L 202.451029 123.948096 
L 202.570387 124.445362 
L 202.630066 124.389487 
L 202.809104 124.065131 
L 203.04782 124.139567 
L 203.226858 124.782525 
L 203.286537 124.713361 
L 203.465574 124.207135 
L 204.062366 125.240992 
L 204.122045 125.183328 
L 204.360762 124.750174 
L 204.420441 124.789239 
L 204.897874 125.710566 
L 205.076911 126.090465 
L 205.19627 126.376264 
L 205.315628 125.615868 
L 205.434986 124.779294 
L 205.554344 125.614895 
L 205.673703 126.245438 
L 205.793061 125.884752 
L 205.85274 125.931304 
L 206.031778 126.639398 
L 206.091457 126.607118 
L 206.210815 126.474086 
L 206.747927 126.962108 
L 207.046323 127.605084 
L 207.464077 127.794688 
L 207.583435 127.863886 
L 207.822152 128.581117 
L 208.001189 129.124751 
L 208.060868 129.094752 
L 208.239906 128.415968 
L 208.299585 128.459079 
L 208.777018 130.10168 
L 208.956056 130.380641 
L 209.37381 131.295408 
L 209.493168 131.699567 
L 209.910922 133.50506 
L 210.03028 133.254208 
L 210.149639 133.115288 
L 210.328676 134.293843 
L 210.567393 135.248224 
L 210.686751 135.692968 
L 210.806109 136.67308 
L 210.865788 164.400164 
L 210.925467 157.893515 
L 210.985147 136.829159 
L 211.044826 137.136096 
L 211.223863 136.68764 
L 211.283542 136.539364 
L 211.283774 219.10771 
L 211.283774 219.10771 
" clip-path="url(#pbc63733a9a)" style="fill: none; stroke: #01426a; stroke-linecap: square"/>
   </g>
   <g id="line2d_16">
    <path d="M 51.791029 135.000821 
L 219.191029 135.000821 
" clip-path="url(#pbc63733a9a)" style="fill: none; stroke: #000000; stroke-linecap: square"/>
   </g>
   <g id="patch_3">
    <path d="M 51.791029 177.778992 
L 51.791029 11.458992 
" style="fill: none; stroke: #000000; stroke-width: 0.8; stroke-linejoin: miter; stroke-linecap: square"/>
   </g>
   <g id="patch_4">
    <path d="M 219.191029 177.778992 
L 219.191029 11.458992 
" style="fill: none; stroke: #000000; stroke-width: 0.8; stroke-linejoin: miter; stroke-linecap: square"/>
   </g>
   <g id="patch_5">
    <path d="M 51.791029 177.778992 
L 219.191029 177.778992 
" style="fill: none; stroke: #000000; stroke-width: 0.8; stroke-linejoin: miter; stroke-linecap: square"/>
   </g>
   <g id="patch_6">
    <path d="M 51.791029 11.458992 
L 219.191029 11.458992 
" style="fill: none; stroke: #000000; stroke-width: 0.8; stroke-linejoin: miter; stroke-linecap: square"/>
   </g>
  </g>
  <g id="axes_2">
   <g id="matplotlib.axis_3">
    <g id="ytick_5">
     <g id="line2d_17">
      <defs>
       <path id="mc85746886d" d="M 0 0 
L 3.5 0 
" style="stroke: #000000; stroke-width: 0.8"/>
      </defs>
      <g>
       <use xlink:href="#mc85746886d" x="219.191029" y="170.943924" style="stroke: #000000; stroke-width: 0.8"/>
      </g>
     </g>
     <g id="text_10">
      <!-- $\mathdefault{1}$ -->
      <g style="fill: #ce0037" transform="translate(226.191029 175.202916) scale(0.12 -0.12)">
       <use xlink:href="#CMR17-31" transform="scale(0.996264)"/>
      </g>
     </g>
    </g>
    <g id="ytick_6">
     <g id="line2d_18">
      <g>
       <use xlink:href="#mc85746886d" x="219.191029" y="148.160362" style="stroke: #000000; stroke-width: 0.8"/>
      </g>
     </g>
     <g id="text_11">
      <!-- $\mathdefault{2}$ -->
      <g style="fill: #ce0037" transform="translate(226.191029 152.419354) scale(0.12 -0.12)">
       <use xlink:href="#CMR17-32" transform="scale(0.996264)"/>
      </g>
     </g>
    </g>
    <g id="ytick_7">
     <g id="line2d_19">
      <g>
       <use xlink:href="#mc85746886d" x="219.191029" y="125.3768" style="stroke: #000000; stroke-width: 0.8"/>
      </g>
     </g>
     <g id="text_12">
      <!-- $\mathdefault{3}$ -->
      <g style="fill: #ce0037" transform="translate(226.191029 129.635793) scale(0.12 -0.12)">
       <use xlink:href="#CMR17-33" transform="scale(0.996264)"/>
      </g>
     </g>
    </g>
    <g id="ytick_8">
     <g id="line2d_20">
      <g>
       <use xlink:href="#mc85746886d" x="219.191029" y="102.593239" style="stroke: #000000; stroke-width: 0.8"/>
      </g>
     </g>
     <g id="text_13">
      <!-- $\mathdefault{4}$ -->
      <g style="fill: #ce0037" transform="translate(226.191029 106.852231) scale(0.12 -0.12)">
       <defs>
        <path id="CMR17-34" d="M 2150 4147 
C 2150 4281 2144 4288 2029 4288 
L 128 1254 
L 128 1088 
L 1779 1088 
L 1779 460 
C 1779 230 1766 166 1318 166 
L 1197 166 
L 1197 0 
C 1402 12 1747 12 1965 12 
C 2182 12 2528 12 2733 0 
L 2733 166 
L 2611 166 
C 2163 166 2150 230 2150 460 
L 2150 1088 
L 2803 1088 
L 2803 1254 
L 2150 1254 
L 2150 4147 
z
M 1798 3723 
L 1798 1254 
L 256 1254 
L 1798 3723 
z
" transform="scale(0.015625)"/>
       </defs>
       <use xlink:href="#CMR17-34" transform="scale(0.996264)"/>
      </g>
     </g>
    </g>
    <g id="ytick_9">
     <g id="line2d_21">
      <g>
       <use xlink:href="#mc85746886d" x="219.191029" y="79.809677" style="stroke: #000000; stroke-width: 0.8"/>
      </g>
     </g>
     <g id="text_14">
      <!-- $\mathdefault{5}$ -->
      <g style="fill: #ce0037" transform="translate(226.191029 84.068669) scale(0.12 -0.12)">
       <use xlink:href="#CMR17-35" transform="scale(0.996264)"/>
      </g>
     </g>
    </g>
    <g id="ytick_10">
     <g id="line2d_22">
      <g>
       <use xlink:href="#mc85746886d" x="219.191029" y="57.026115" style="stroke: #000000; stroke-width: 0.8"/>
      </g>
     </g>
     <g id="text_15">
      <!-- $\mathdefault{6}$ -->
      <g style="fill: #ce0037" transform="translate(226.191029 61.285108) scale(0.12 -0.12)">
       <defs>
        <path id="CMR17-36" d="M 678 2198 
C 678 3712 1395 4076 1811 4076 
C 1946 4076 2272 4049 2400 3782 
C 2298 3782 2106 3782 2106 3558 
C 2106 3385 2246 3328 2336 3328 
C 2394 3328 2566 3353 2566 3571 
C 2566 3987 2246 4224 1805 4224 
C 1043 4224 243 3411 243 2011 
C 243 257 966 -128 1478 -128 
C 2099 -128 2688 431 2688 1295 
C 2688 2101 2170 2688 1517 2688 
C 1126 2688 838 2430 678 1979 
L 678 2198 
z
M 1478 25 
C 691 25 691 1212 691 1450 
C 691 1914 909 2585 1504 2585 
C 1613 2585 1926 2585 2138 2140 
C 2253 1889 2253 1624 2253 1302 
C 2253 954 2253 696 2118 438 
C 1978 173 1773 25 1478 25 
z
" transform="scale(0.015625)"/>
       </defs>
       <use xlink:href="#CMR17-36" transform="scale(0.996264)"/>
      </g>
     </g>
    </g>
    <g id="ytick_11">
     <g id="line2d_23">
      <g>
       <use xlink:href="#mc85746886d" x="219.191029" y="34.242554" style="stroke: #000000; stroke-width: 0.8"/>
      </g>
     </g>
     <g id="text_16">
      <!-- $\mathdefault{7}$ -->
      <g style="fill: #ce0037" transform="translate(226.191029 38.501546) scale(0.12 -0.12)">
       <use xlink:href="#CMR17-37" transform="scale(0.996264)"/>
      </g>
     </g>
    </g>
    <g id="ytick_12">
     <g id="line2d_24">
      <g>
       <use xlink:href="#mc85746886d" x="219.191029" y="11.458992" style="stroke: #000000; stroke-width: 0.8"/>
      </g>
     </g>
     <g id="text_17">
      <!-- $\mathdefault{8}$ -->
      <g style="fill: #ce0037" transform="translate(226.191029 15.717984) scale(0.12 -0.12)">
       <defs>
        <path id="CMR17-38" d="M 1741 2289 
C 2144 2494 2554 2803 2554 3298 
C 2554 3884 1990 4224 1472 4224 
C 890 4224 378 3800 378 3215 
C 378 3054 416 2777 666 2533 
C 730 2469 998 2276 1171 2154 
C 883 2006 211 1652 211 945 
C 211 282 838 -128 1459 -128 
C 2144 -128 2720 366 2720 1022 
C 2720 1607 2330 1877 2074 2051 
L 1741 2289 
z
M 902 2855 
C 851 2887 595 3086 595 3388 
C 595 3781 998 4076 1459 4076 
C 1965 4076 2336 3716 2336 3298 
C 2336 2700 1670 2359 1638 2359 
C 1632 2359 1626 2359 1574 2398 
L 902 2855 
z
M 2080 1536 
C 2176 1466 2483 1253 2483 861 
C 2483 385 2010 25 1472 25 
C 890 25 448 443 448 951 
C 448 1459 838 1884 1280 2083 
L 2080 1536 
z
" transform="scale(0.015625)"/>
       </defs>
       <use xlink:href="#CMR17-38" transform="scale(0.996264)"/>
      </g>
     </g>
    </g>
    <g id="text_18">
     <!-- Modes -->
     <g style="fill: #ce0037" transform="translate(244.562003 112.557582) rotate(-90) scale(0.12 -0.12)">
      <defs>
       <path id="NimbusSanL-Regu-4d" d="M 2995 0 
L 4307 3915 
L 4307 0 
L 4870 0 
L 4870 4672 
L 4045 4672 
L 2688 602 
L 1306 4672 
L 480 4672 
L 480 0 
L 1043 0 
L 1043 3915 
L 2368 0 
L 2995 0 
z
" transform="scale(0.015625)"/>
      </defs>
      <use xlink:href="#NimbusSanL-Regu-4d" transform="scale(0.996264)"/>
      <use xlink:href="#NimbusSanL-Regu-6f" transform="translate(82.98843 0) scale(0.996264)"/>
      <use xlink:href="#NimbusSanL-Regu-64" transform="translate(138.380107 0) scale(0.996264)"/>
      <use xlink:href="#NimbusSanL-Regu-65" transform="translate(193.771784 0) scale(0.996264)"/>
      <use xlink:href="#NimbusSanL-Regu-73" transform="translate(249.163461 0) scale(0.996264)"/>
     </g>
    </g>
   </g>
   <g id="line2d_25">
    <path d="M 59.40012 170.943924 
L 98.788355 170.943924 
L 98.907713 148.160362 
L 129.82151 148.160362 
L 129.940868 125.3768 
L 164.137018 125.3768 
L 164.256376 102.593239 
L 179.116483 102.593239 
L 179.235842 79.809677 
L 196.304077 79.809677 
L 196.423435 57.026115 
L 210.865788 57.026115 
L 210.985147 34.242554 
L 211.581938 34.242554 
L 211.581938 34.242554 
" clip-path="url(#pbc63733a9a)" style="fill: none; stroke: #ce0037; stroke-linecap: square"/>
   </g>
   <g id="patch_7">
    <path d="M 51.791029 177.778992 
L 51.791029 11.458992 
" style="fill: none; stroke: #000000; stroke-width: 0.8; stroke-linejoin: miter; stroke-linecap: square"/>
   </g>
   <g id="patch_8">
    <path d="M 219.191029 177.778992 
L 219.191029 11.458992 
" style="fill: none; stroke: #000000; stroke-width: 0.8; stroke-linejoin: miter; stroke-linecap: square"/>
   </g>
   <g id="patch_9">
    <path d="M 51.791029 177.778992 
L 219.191029 177.778992 
" style="fill: none; stroke: #000000; stroke-width: 0.8; stroke-linejoin: miter; stroke-linecap: square"/>
   </g>
   <g id="patch_10">
    <path d="M 51.791029 11.458992 
L 219.191029 11.458992 
" style="fill: none; stroke: #000000; stroke-width: 0.8; stroke-linejoin: miter; stroke-linecap: square"/>
   </g>
  </g>
 </g>
 <defs>
  <clipPath id="pbc63733a9a">
   <rect x="51.791029" y="11.458992" width="167.4" height="166.32"/>
  </clipPath>
 </defs>
</svg>
